<?xml version="1.0" encoding="UTF-8" standalone="no"?>
<!-- Created with Inkscape (http://www.inkscape.org/) -->

<svg
   version="1.1"
   width="173.14198"
   height="523.61536"
   id="svg28087"
   xml:space="preserve"
   sodipodi:docname="left right.svg"
   inkscape:version="1.4.3 (0d15f75, 2025-12-25)"
   xmlns:inkscape="http://www.inkscape.org/namespaces/inkscape"
   xmlns:sodipodi="http://sodipodi.sourceforge.net/DTD/sodipodi-0.dtd"
   xmlns="http://www.w3.org/2000/svg"
   xmlns:svg="http://www.w3.org/2000/svg"
   xmlns:rdf="http://www.w3.org/1999/02/22-rdf-syntax-ns#"
   xmlns:cc="http://creativecommons.org/ns#"
   xmlns:dc="http://purl.org/dc/elements/1.1/"><sodipodi:namedview
     id="namedview1"
     pagecolor="#ffffff"
     bordercolor="#000000"
     borderopacity="0.25"
     inkscape:showpageshadow="2"
     inkscape:pageopacity="0.0"
     inkscape:pagecheckerboard="true"
     inkscape:deskcolor="#d1d1d1"
     inkscape:zoom="0.57152962"
     inkscape:cx="-78.736077"
     inkscape:cy="316.694"
     inkscape:window-width="1920"
     inkscape:window-height="1010"
     inkscape:window-x="-6"
     inkscape:window-y="-6"
     inkscape:window-maximized="1"
     inkscape:current-layer="g28103" /><metadata
     id="metadata28093"><rdf:RDF><cc:Work
         rdf:about=""><dc:format>image/svg+xml</dc:format><dc:type
           rdf:resource="http://purl.org/dc/dcmitype/StillImage" /></cc:Work></rdf:RDF></metadata><defs
     id="defs28091" /><g
     transform="matrix(1.25,0,0,1.25,-90.357697,-113.16816)"
     id="g28103"><path
       id="path28105"
       style="fill:#ffffff;fill-opacity:1;fill-rule:nonzero;stroke:#000000;stroke-width:2.4;stroke-linecap:butt;stroke-linejoin:miter;stroke-miterlimit:4;stroke-dasharray:none;stroke-opacity:1"
       d="m 101.64452,90.81589 -28.114066,116.5625 28.114066,90.07813 c 0,-1e-5 -0.563,-68.15094 0,-74.68594 5.515,0 35.5855,2.49075 34.1875,29.06875 -1.398,26.578 -11.32813,256.3875 -11.32813,256.3875 h 0.50469 33.06875 0.50469 c 0,0 -9.93013,-229.8095 -11.32813,-256.3875 -1.398,-26.578 28.6725,-29.06875 34.1875,-29.06875 0.563,6.535 0,74.68593 0,74.68594 l 28.11406,-90.07813 -28.11406,-116.5625 -0.5625,90.68438 c 0,0 -36.81028,12.2979 -39.33594,25.81562 -2.44075,-13.6378 -39.33593,-25.81562 -39.33593,-25.81562 z"
       sodipodi:nodetypes="ccccsccccscccccccc" /></g></svg>
