<?xml version="1.0" encoding="UTF-8" standalone="no"?>
<!-- Created with Inkscape (http://www.inkscape.org/) -->

<svg
   version="1.1"
   width="139.25026"
   height="523.48279"
   id="svg28087"
   xml:space="preserve"
   sodipodi:docname="top-left-right.svg"
   inkscape:version="1.4.3 (0d15f75, 2025-12-25)"
   xmlns:inkscape="http://www.inkscape.org/namespaces/inkscape"
   xmlns:sodipodi="http://sodipodi.sourceforge.net/DTD/sodipodi-0.dtd"
   xmlns="http://www.w3.org/2000/svg"
   xmlns:svg="http://www.w3.org/2000/svg"
   xmlns:rdf="http://www.w3.org/1999/02/22-rdf-syntax-ns#"
   xmlns:cc="http://creativecommons.org/ns#"
   xmlns:dc="http://purl.org/dc/elements/1.1/"><sodipodi:namedview
     id="namedview1"
     pagecolor="#ffffff"
     bordercolor="#000000"
     borderopacity="0.25"
     inkscape:showpageshadow="2"
     inkscape:pageopacity="0.0"
     inkscape:pagecheckerboard="true"
     inkscape:deskcolor="#d1d1d1"
     inkscape:zoom="1.1430592"
     inkscape:cx="10.060721"
     inkscape:cy="339.43999"
     inkscape:window-width="1920"
     inkscape:window-height="1010"
     inkscape:window-x="-6"
     inkscape:window-y="-6"
     inkscape:window-maximized="1"
     inkscape:current-layer="g28111" /><metadata
     id="metadata28093"><rdf:RDF><cc:Work
         rdf:about=""><dc:format>image/svg+xml</dc:format><dc:type
           rdf:resource="http://purl.org/dc/dcmitype/StillImage" /></cc:Work></rdf:RDF></metadata><defs
     id="defs28091" /><g
     transform="matrix(1.25,0,0,1.25,-487.80147,21.425433)"
     id="g28107" /><g
     transform="matrix(-1.25,0,0,1.25,552.2515,-113.30074)"
     id="g28111"><path
       id="path28113"
       style="fill:#ffffff;fill-opacity:1;fill-rule:nonzero;stroke:#000000;stroke-width:2.4;stroke-linecap:butt;stroke-linejoin:miter;stroke-miterlimit:4;stroke-dasharray:none;stroke-opacity:1"
       d="M 385.75032,90.823701 411.47688,257.4487 h -20.92656 l 1.95,38.92656 c 6.664,-7.75 19.37856,-7.832 28.47656,-8.75 l 0.23437,-58.5 19.33907,74.02032 -19.33907,58.27968 v -42.07343 c -21.922,3.218 -26.8745,13.50343 -26.0625,29.89843 l 7.95313,158.97657 h -33.57813 c 0,0 4.12131,-93.0965 7.42813,-166.42032 -1.12098,-12.08145 -7.569,-19.7551 -25.95938,-22.45468 v 42.07343 l -19.34062,-58.27968 19.34062,-74.02032 0.23282,58.5 c 8.80779,0.88872 21.00625,0.99366 27.82187,8.03125 0.8581,-18.71623 1.51406,-32.70221 1.80469,-38.20781 h -18.625 z" /></g></svg>
