<?xml version="1.0" encoding="UTF-8" standalone="no"?>
<!-- Created with Inkscape (http://www.inkscape.org/) -->

<svg
   version="1.1"
   width="157.75519"
   height="524.72803"
   id="svg28087"
   xml:space="preserve"
   sodipodi:docname="uturn-top.svg"
   inkscape:version="1.4.3 (0d15f75, 2025-12-25)"
   xmlns:inkscape="http://www.inkscape.org/namespaces/inkscape"
   xmlns:sodipodi="http://sodipodi.sourceforge.net/DTD/sodipodi-0.dtd"
   xmlns="http://www.w3.org/2000/svg"
   xmlns:svg="http://www.w3.org/2000/svg"
   xmlns:rdf="http://www.w3.org/1999/02/22-rdf-syntax-ns#"
   xmlns:cc="http://creativecommons.org/ns#"
   xmlns:dc="http://purl.org/dc/elements/1.1/"><sodipodi:namedview
     id="namedview1"
     pagecolor="#ffffff"
     bordercolor="#000000"
     borderopacity="0.25"
     inkscape:showpageshadow="2"
     inkscape:pageopacity="0.0"
     inkscape:pagecheckerboard="true"
     inkscape:deskcolor="#d1d1d1"
     inkscape:zoom="2.2861184"
     inkscape:cx="0.65613399"
     inkscape:cy="297.44741"
     inkscape:window-width="1920"
     inkscape:window-height="1010"
     inkscape:window-x="-6"
     inkscape:window-y="-6"
     inkscape:window-maximized="1"
     inkscape:current-layer="g28111" /><metadata
     id="metadata28093"><rdf:RDF><cc:Work
         rdf:about=""><dc:format>image/svg+xml</dc:format><dc:type
           rdf:resource="http://purl.org/dc/dcmitype/StillImage" /></cc:Work></rdf:RDF></metadata><defs
     id="defs28091" /><g
     transform="matrix(1.25,0,0,1.25,-469.29739,21.425802)"
     id="g28107" /><g
     transform="matrix(-1.25,0,0,1.25,570.75558,-113.30037)"
     id="g28111"><path
       id="path28113"
       style="fill:#ffffff;fill-opacity:1;fill-rule:nonzero;stroke:#000000;stroke-width:2.4;stroke-linecap:butt;stroke-linejoin:miter;stroke-miterlimit:4;stroke-dasharray:none;stroke-opacity:1"
       d="M 385.74964,90.823405 411.4762,257.4484 h -20.92656 l 1.95,38.92657 c 0.88281,17.625 1.76563,35.25 2.64844,52.875 l 1.04687,20.91093 c 3.55412,-0.89165 6.91626,-1.05932 9.42812,-1.08125 10.08571,0.25228 34.58279,3.05598 32.46094,35.37657 -0.38361,36.9747 -0.94154,60.18202 -2.13281,75.08593 h 17.9875 l -25.70625,29.025 -23.53125,-29.025 h 15.18438 c -0.29803,-21.64779 8.03131,-90.81608 -11.47501,-91.39062 -5.43661,-1.10357 -8.85771,1.73786 -10.9875,6.58437 -1.9e-4,4.4e-4 2e-4,10e-4 0,0.002 l 5.67813,113.48906 h -6.99219 c 0.009,0.22455 0.0125,0.34062 0.0125,0.34062 l -20.30469,-0.0344 v -0.30625 h -6.29374 c 0,0 4.1213,-93.09649 7.42812,-166.42031 0.69844,-15.38333 1.39687,-30.76667 2.09531,-46.15 0.8581,-18.71623 1.51406,-32.70222 1.80469,-38.20782 h -18.625 z"
       sodipodi:nodetypes="ccccccccccccccscccccccccccc" /></g></svg>
