<?xml version="1.0" encoding="UTF-8" standalone="no"?>
<!-- Created with Inkscape (http://www.inkscape.org/) -->

<svg
   version="1.1"
   width="180.02446"
   height="519.30768"
   id="svg28087"
   xml:space="preserve"
   sodipodi:docname="uturn-right.svg"
   inkscape:version="1.4.3 (0d15f75, 2025-12-25)"
   xmlns:inkscape="http://www.inkscape.org/namespaces/inkscape"
   xmlns:sodipodi="http://sodipodi.sourceforge.net/DTD/sodipodi-0.dtd"
   xmlns="http://www.w3.org/2000/svg"
   xmlns:svg="http://www.w3.org/2000/svg"
   xmlns:rdf="http://www.w3.org/1999/02/22-rdf-syntax-ns#"
   xmlns:cc="http://creativecommons.org/ns#"
   xmlns:dc="http://purl.org/dc/elements/1.1/"><sodipodi:namedview
     id="namedview1"
     pagecolor="#ffffff"
     bordercolor="#000000"
     borderopacity="0.25"
     inkscape:showpageshadow="2"
     inkscape:pageopacity="0.0"
     inkscape:pagecheckerboard="true"
     inkscape:deskcolor="#d1d1d1"
     inkscape:zoom="1.4142136"
     inkscape:cx="164.40233"
     inkscape:cy="289.91378"
     inkscape:window-width="1920"
     inkscape:window-height="1010"
     inkscape:window-x="-6"
     inkscape:window-y="-6"
     inkscape:window-maximized="1"
     inkscape:current-layer="g28103-2" /><metadata
     id="metadata28093"><rdf:RDF><cc:Work
         rdf:about=""><dc:format>image/svg+xml</dc:format><dc:type
           rdf:resource="http://purl.org/dc/dcmitype/StillImage" /></cc:Work></rdf:RDF></metadata><defs
     id="defs28091" /><g
     transform="matrix(1.25,0,0,1.25,143.29682,-103.08273)"
     id="g28103"><g
       id="g28097"
       transform="matrix(1,0,0,-1,-630.98892,697.00207)"><g
         transform="matrix(1,0,0,-1,457.07411,894.22898)"
         id="g28103-2"><path
           id="path2"
           style="fill:#ffffff;fill-opacity:1;fill-rule:nonzero;stroke:#000000;stroke-width:2.4;stroke-linecap:butt;stroke-linejoin:miter;stroke-miterlimit:4;stroke-dasharray:none;stroke-opacity:1"
           d="m 173.92094,280.01619 -0.5625,74.68438 c 0,0 -15.27294,5.67862 -26.73594,31.41562 -0.63551,1.61713 -12.80999,14.82658 -11.33281,89.52813 -6.23009,-2.78207 -13.8256,-4.31406 -22.95312,-4.39375 -3.43689,-0.4476 -41.783779,1.85646 -45.260941,36.97656 6.008601,53.77173 10.541543,69.78203 11.732813,84.68594 h -17.9875 l 25.70625,101.025 23.531248,-101.025 H 94.874067 c 2.04772,-20.59798 2.317134,-71.56751 13.075003,-80.19063 2.18753,-1.67832 8.38753,-0.84024 9.85781,0.1 4.80389,4.69554 5.6859,12.86888 5.76094,36.72813 0.0867,27.56777 -1.72969,144.38749 -1.72969,144.3875 l 36.30469,-0.0344 c 0,-90.76119 -2.45726,-238.67312 -0.80939,-273.66406 1.002,-8.978 11.0725,-24.27031 16.5875,-24.27031 0.563,6.535 0,58.6875 0,58.6875 L 202.035,380.57869 Z"
           sodipodi:nodetypes="cccccccccccccsccscccc" /></g></g></g></svg>
