<?xml version="1.0" encoding="UTF-8" standalone="no"?>
<!-- Created with Inkscape (http://www.inkscape.org/) -->

<svg
   version="1.1"
   width="88.8237"
   height="523.61548"
   id="svg28087"
   xml:space="preserve"
   sodipodi:docname="u turn left.svg"
   inkscape:version="1.4.3 (0d15f75, 2025-12-25)"
   xmlns:inkscape="http://www.inkscape.org/namespaces/inkscape"
   xmlns:sodipodi="http://sodipodi.sourceforge.net/DTD/sodipodi-0.dtd"
   xmlns="http://www.w3.org/2000/svg"
   xmlns:svg="http://www.w3.org/2000/svg"
   xmlns:rdf="http://www.w3.org/1999/02/22-rdf-syntax-ns#"
   xmlns:cc="http://creativecommons.org/ns#"
   xmlns:dc="http://purl.org/dc/elements/1.1/"><sodipodi:namedview
     id="namedview1"
     pagecolor="#ffffff"
     bordercolor="#000000"
     borderopacity="0.25"
     inkscape:showpageshadow="2"
     inkscape:pageopacity="0.0"
     inkscape:pagecheckerboard="true"
     inkscape:deskcolor="#d1d1d1"
     inkscape:zoom="1"
     inkscape:cx="-89.5"
     inkscape:cy="301"
     inkscape:window-width="1920"
     inkscape:window-height="1010"
     inkscape:window-x="-6"
     inkscape:window-y="-6"
     inkscape:window-maximized="1"
     inkscape:current-layer="g28103-2" /><metadata
     id="metadata28093"><rdf:RDF><cc:Work
         rdf:about=""><dc:format>image/svg+xml</dc:format><dc:type
           rdf:resource="http://purl.org/dc/dcmitype/StillImage" /></cc:Work></rdf:RDF></metadata><defs
     id="defs28091" /><g
     transform="matrix(1.25,0,0,1.25,107.03921,-100.75809)"
     id="g28103"><g
       id="g28097"
       transform="matrix(1,0,0,-1,-630.98892,697.00207)"><g
         transform="matrix(1,0,0,-1,457.07411,894.22898)"
         id="g28103-2"><path
           id="path28105-1"
           style="fill:#ffffff;fill-opacity:1;fill-rule:nonzero;stroke:#000000;stroke-width:2.4;stroke-linecap:butt;stroke-linejoin:miter;stroke-miterlimit:4;stroke-dasharray:none;stroke-opacity:1"
           d="M 117.64438 279.61619 L 89.530317 380.17869 L 117.64438 454.25682 C 117.64438 454.25682 117.08138 402.10432 117.64438 395.56932 C 123.15938 395.56932 133.22988 410.86163 134.23188 419.83963 C 135.69049 432.90892 135.67721 455.81442 135.28969 475.64432 C 129.0596 472.86225 121.46409 471.33026 112.33657 471.25057 C 108.89968 470.80297 70.55279 473.10703 67.075629 508.22713 C 73.08423 561.99886 77.617172 578.00916 78.808442 592.91307 L 60.820942 592.91307 L 86.527192 693.93807 L 110.05844 592.91307 L 94.874067 592.91307 C 96.921787 572.31509 97.191207 521.34556 107.94907 512.72244 C 110.1366 511.04412 116.3366 511.8822 117.80688 512.82244 C 122.61077 517.51798 123.49278 525.69132 123.56782 549.55057 C 123.65452 577.11834 121.83813 693.93806 121.83813 693.93807 L 158.14282 693.90369 C 158.14282 603.1425 157.5545 567.84873 158.03344 513.02713 L 158.07875 513.02713 C 158.08463 512.79238 158.03426 512.54057 158.03969 512.30526 C 158.05167 510.95603 158.06546 509.60137 158.07875 508.22713 C 157.9857 507.6675 157.84047 507.15008 157.735 506.60057 C 158.14035 457.26846 149.92757 398.40046 144.94282 385.71619 C 133.47982 359.97919 118.20688 354.30057 118.20688 354.30057 L 117.64438 279.61619 z " /></g></g></g></svg>
