<?xml version="1.0" encoding="utf-8"?>
<!DOCTYPE svg PUBLIC "-//W3C//DTD SVG 1.1//EN" "http://www.w3.org/Graphics/SVG/1.1/DTD/svg11.dtd">
<svg version="1.1" id="RiLSA_825" xmlns="http://www.w3.org/2000/svg" xmlns:xlink="http://www.w3.org/1999/xlink" x="0px" y="0px"
	 width="600px" height="600px" viewBox="0 0 600 600" enable-background="new 0 0 600 600" xml:space="preserve">
<circle cx="300" cy="300" r="300"/>
<path fill="#00C035" d="M305.251,190.209l-49.58,91.313c-1.804,3.321-4.471,6.095-7.718,8.027
	c-3.249,1.933-6.958,2.953-10.738,2.953c-3.5,0-6.944-0.876-10.021-2.545l55.783-102.737c0.835-1.538,1.273-3.261,1.273-5.01v-2.582
	h42v2.582c0,1.751,0.438,3.473,1.271,5.01l41.701,76.807c1.67,3.075,2.545,6.52,2.545,10.02c0,3.78-1.021,7.489-2.952,10.738
	c-1.934,3.248-4.706,5.914-8.027,7.718L305.251,190.209 M326.25,113.466v60.91h-42v-50.372l-27.278,42.004
	c-3.389,5.219-9.188,8.368-15.411,8.368c-3.552,0-7.029-1.03-10.008-2.965l51.682-79.583c4.841-7.455,13.125-11.953,22.016-11.953
	c6.172,0,12.146,2.173,16.872,6.141l35.253,29.579c3.565,2.993,5.623,7.41,5.623,12.065v25.714c0,4.873-1.936,9.547-5.382,12.994
	c-3.444,3.446-8.119,5.382-12.99,5.382v-42.865L326.25,113.466 M315.748,51c0-5.57-2.212-10.912-6.149-14.849
	c-3.939-3.938-9.281-6.151-14.85-6.151c-5.569,0-10.912,2.211-14.85,6.151c-3.938,3.938-6.149,9.279-6.149,14.849
	s2.211,10.912,6.149,14.85s9.28,6.151,14.85,6.151c5.568,0,10.91-2.212,14.85-6.151C313.537,61.912,315.748,56.57,315.748,51"/>
<path fill="#00C035" d="M455.729,424.771c-12.658-12.658-29.827-19.771-47.729-19.771c-7.105,0-14.166,1.121-20.923,3.324
	l-19.58-43.824l5.063-13.5h15.188v-13.5h-57.375c-1.863,0-3.375,1.51-3.375,3.373c0,1.563,1.071,2.918,2.59,3.283l28.555,6.844
	l-5.063,13.5H232.5l5.415-17.492c0.853-2.756,2.564-5.164,4.885-6.875c2.319-1.711,5.128-2.633,8.01-2.633H273v-13.5h-22.19
	c-5.765,0-11.381,1.847-16.021,5.269c-4.643,3.422-8.066,8.237-9.77,13.748l-19.605,63.33c-4.416-0.896-8.909-1.345-13.413-1.345
	c-17.903,0-35.073,7.111-47.731,19.771c-12.659,12.659-19.771,29.827-19.771,47.729s7.111,35.072,19.771,47.73
	c12.658,12.657,29.829,19.771,47.731,19.771c17.9,0,35.069-7.113,47.729-19.771c12.659-12.658,19.771-29.828,19.771-47.73
	c0-13.264-3.906-26.229-11.231-37.285c-7.326-11.055-17.747-19.707-29.959-24.877l5.365-17.328l79.797,88.529
	c2.561,2.84,6.204,4.461,10.027,4.461h28.363c3.112,15.244,11.395,28.945,23.446,38.785c12.051,9.84,27.132,15.215,42.69,15.215
	c17.901,0,35.07-7.111,47.729-19.771c12.659-12.657,19.771-29.827,19.771-47.729S468.389,437.43,455.729,424.771z M237.386,443.242
	c5.624,8.723,8.614,18.881,8.614,29.26c0,14.322-5.689,28.057-15.815,38.184c-10.127,10.125-23.862,15.814-38.184,15.814
	c-14.323,0-28.058-5.689-38.185-15.814C143.689,500.559,138,486.825,138,472.502c0-14.32,5.688-28.059,15.816-38.186
	c10.126-10.127,23.861-15.814,38.185-15.814c3.148,0,6.293,0.273,9.396,0.822l-15.844,51.18c-0.201,0.646-0.302,1.322-0.302,1.998
	c0,3.727,3.021,6.75,6.75,6.75c2.959,0,5.573-1.928,6.448-4.754l15.844-51.18C223.746,427.604,231.762,434.52,237.386,443.242z
	 M312.852,471.781l-84.531-93.779h119.7L312.852,471.781z M340.498,472.502h-13.5l33.754-90.006l13.975,31.275
	c-10.389,5.889-19.031,14.426-25.045,24.743S340.498,460.561,340.498,472.502z M380.266,426.168l20.7,46.334h-46.968
	C353.998,453.514,363.973,435.92,380.266,426.168z M446.185,510.686c-10.127,10.127-23.861,15.816-38.185,15.816
	c-11.974,0-23.604-3.979-33.067-11.309c-9.464-7.332-16.226-17.601-19.218-29.191h0.001h55.66c3.728,0,6.75-3.023,6.75-6.75
	c0-0.949-0.198-1.887-0.587-2.752l-24.914-55.764c4.99-1.482,10.169-2.234,15.376-2.234c14.321,0,28.057,5.688,38.184,15.814
	C456.311,444.443,462,458.182,462,472.502C462,486.824,456.311,500.559,446.185,510.686z"/>
</svg>
