<?xml version="1.0" encoding="UTF-8" standalone="no"?>
<svg
   id="svg5060"
   version="1.1"
   viewBox="0 0 474 474"
   sodipodi:docname="bicycle-straight.svg"
   inkscape:version="1.4.3 (0d15f75, 2025-12-25)"
   xmlns:inkscape="http://www.inkscape.org/namespaces/inkscape"
   xmlns:sodipodi="http://sodipodi.sourceforge.net/DTD/sodipodi-0.dtd"
   xmlns="http://www.w3.org/2000/svg"
   xmlns:svg="http://www.w3.org/2000/svg">
  <sodipodi:namedview
     id="namedview1"
     pagecolor="#ffffff"
     bordercolor="#000000"
     borderopacity="0.25"
     inkscape:showpageshadow="2"
     inkscape:pageopacity="0.0"
     inkscape:pagecheckerboard="0"
     inkscape:deskcolor="#d1d1d1"
     inkscape:zoom="1.7046414"
     inkscape:cx="237"
     inkscape:cy="237"
     inkscape:window-width="1920"
     inkscape:window-height="1010"
     inkscape:window-x="-6"
     inkscape:window-y="-6"
     inkscape:window-maximized="1"
     inkscape:current-layer="svg5060" />
  <defs
     id="defs1">
    <style
       id="style1">
      .cls-1 {
        fill: #000;
      }

      .cls-1, .cls-2, .cls-3 {
        stroke-width: 0px;
      }

      .cls-2, .cls-3 {
        fill: #00c035;
      }

      .cls-4 {
        fill: none;
        stroke: #00c035;
        stroke-miterlimit: 1.6;
        stroke-width: 16px;
      }

      .cls-3 {
        fill-rule: evenodd;
      }
    </style>
  </defs>
  <path
     id="path4277"
     class="cls-1"
     d="M472.1,207.1c16.5,129.8-75.3,248.5-205.2,265S18.4,396.7,1.9,266.9C-14.6,137.1,77.3,18.4,207.1,1.9c129.6-16.5,248.2,75.1,264.9,204.7" />
  <path
     id="circle3726"
     style="baseline-shift:baseline;display:inline;overflow:visible;vector-effect:none;fill:#00c035;stroke-miterlimit:1.6;enable-background:accumulate;stop-color:#000000;stop-opacity:1;opacity:1"
     d="M 207.90039 68.099609 L 207.89844 68.199219 L 207.90039 68.199219 L 207.90039 68.099609 z M 207.89844 68.199219 C 154.90073 68.699044 163.90002 62.701965 135.40039 154.30078 C 135.39958 154.30334 135.39925 154.30604 135.39844 154.30859 C 131.11729 153.51529 126.7049 153.09961 122.19922 153.09961 C 82.308558 153.09961 49.800781 185.60934 49.800781 225.5 C 49.800781 265.39066 82.308558 297.90039 122.19922 297.90039 C 162.08988 297.90039 194.59961 265.39066 194.59961 225.5 C 194.59961 195.65774 176.40472 169.94651 150.53711 158.88672 C 152.16219 153.76253 153.91364 148.27583 155.80078 142.40039 C 262.40078 254.90039 222.40078 236.60039 279.80078 238.90039 C 280.26369 238.89609 280.72394 238.89257 281.18164 238.88867 C 287.95703 271.76755 317.15926 296.59961 352 296.59961 C 391.83543 296.59961 424.30078 264.13621 424.30078 224.30078 C 424.30078 184.46535 391.83543 152 352 152 C 343.93802 152 336.17796 153.3298 328.92773 155.78125 C 323.1944 143.07257 316.47448 128.14672 308.59961 110.59961 L 313.59961 97 L 330.59961 96.699219 L 330 82.5 L 266.5 82.5 C 260.9 90.2 268.79922 90.100391 297.19922 96.400391 L 292.19922 110.30078 L 165.5 110.59961 C 174 80.799609 169.19961 82.699219 207.59961 82.699219 L 207.89844 68.199219 z M 285.80078 125.80078 L 250 222.09961 L 161.80078 126 L 285.80078 125.80078 z M 300.80078 131.69922 L 314.66797 162.41992 C 293.77637 175.08017 279.75772 198.0141 279.69922 224.13672 L 265.59961 224.09961 L 300.80078 131.69922 z M 352 168 C 383.18839 168 408.30078 193.11239 408.30078 224.30078 C 408.30078 255.48917 383.18839 280.59961 352 280.59961 C 325.83686 280.59961 303.95019 262.92981 297.57617 238.82422 C 356.2008 238.87034 361.37577 241.86514 362.19922 231.80078 C 362.19922 228.81872 361.03041 226.82127 335.54102 170.42578 C 340.74361 168.84801 346.26897 168 352 168 z M 122.19922 169.09961 C 125.0262 169.09961 127.80243 169.30534 130.51562 169.70312 C 112.55193 226.35398 114.59961 219.89666 114.59961 224.69922 C 114.59961 228.69922 117.70078 231.79961 121.80078 232.09961 C 129.07043 231.32072 127.42636 232.56486 145.71484 174.1875 C 165.15425 183.07124 178.59961 202.65883 178.59961 225.5 C 178.59961 256.74362 153.44284 281.90039 122.19922 281.90039 C 90.9556 281.90039 65.800781 256.74362 65.800781 225.5 C 65.800781 194.25638 90.9556 169.09961 122.19922 169.09961 z M 321.27734 177.0625 L 342.59961 224.30078 L 295.69922 224.17773 C 295.74098 204.3923 305.88988 187.06479 321.27734 177.0625 z " />
  <path
     id="rect3762"
     class="cls-2"
     d="M177.5,378.4v-22.6l59.4-50.1,59.5,50.4v22.4l-59.4-50.1-59.5,50.1h0ZM227.7,359.3h18.4v71.1h-18.4v-71.1h0Z" />
</svg>
