<?xml version="1.0" encoding="UTF-8" standalone="no"?>
<!-- Created with Inkscape (http://www.inkscape.org/) -->

<svg
   version="1.1"
   width="480"
   height="480"
   id="svg5060"
   sodipodi:docname="left.svg"
   inkscape:version="1.4.3 (0d15f75, 2025-12-25)"
   xmlns:inkscape="http://www.inkscape.org/namespaces/inkscape"
   xmlns:sodipodi="http://sodipodi.sourceforge.net/DTD/sodipodi-0.dtd"
   xmlns="http://www.w3.org/2000/svg"
   xmlns:svg="http://www.w3.org/2000/svg">
  <sodipodi:namedview
     id="namedview1"
     pagecolor="#ffffff"
     bordercolor="#000000"
     borderopacity="0.25"
     inkscape:showpageshadow="2"
     inkscape:pageopacity="0.0"
     inkscape:pagecheckerboard="0"
     inkscape:deskcolor="#d1d1d1"
     inkscape:zoom="1.6833333"
     inkscape:cx="240.29703"
     inkscape:cy="240"
     inkscape:window-width="1920"
     inkscape:window-height="1010"
     inkscape:window-x="-6"
     inkscape:window-y="-6"
     inkscape:window-maximized="1"
     inkscape:current-layer="g5749" />
  <defs
     id="defs5064" />
  <g
     transform="translate(3.0000043,-2.999998)"
     id="g5756">
    <path
       d="m 472.0789,213.09005 a 236.97404,236.97412 0 1 1 -0.0635,-0.49492"
       id="path4277"
       style="fill:black;fill-opacity:1;fill-rule:nonzero;stroke:none" />
    <g
       id="g5749">
      <g
         transform="translate(281.18643,23.072034)"
         id="g5710">
        <path
           id="circle3726"
           style="baseline-shift:baseline;display:inline;overflow:visible;vector-effect:none;fill:#f7b500;enable-background:accumulate;stop-color:#000000;stop-opacity:1;opacity:1;fill-opacity:1"
           d="M 429.48634 15.469156 C 296.91987 16.761229 319.39839 1.768727 248.07608 230.9821 C 248.07101 230.99808 248.06649 231.01499 248.06142 231.03096 C 237.33775 229.03969 226.28713 228.00135 214.99956 228.00135 C 115.27291 228.00135 33.99976 309.2745 33.99976 409.00115 C 33.99976 508.7278 115.27291 590.00094 214.99956 590.00094 C 314.72621 590.00094 395.99935 508.7278 395.99935 409.00115 C 395.99935 334.4295 350.55824 270.17438 285.93646 242.5044 C 290.01895 229.66191 294.41626 215.90812 299.15926 201.17951 C 565.87141 482.53512 465.80798 436.91115 609.3427 442.62496 C 610.47709 442.61408 611.60224 442.60556 612.72414 442.59564 C 629.71516 524.86921 702.80488 587.00065 790.00044 587.00065 C 889.72709 587.00065 971.00024 505.7275 971.00024 406.00085 C 971.00024 306.2742 889.72709 225.00106 790.00044 225.00106 C 769.8116 225.00106 750.37792 228.33063 732.2228 234.47104 C 717.90015 202.728 701.11339 165.46583 681.4377 121.67662 L 693.84445 87.564158 L 736.47892 86.787209 L 734.92991 51.130626 L 576.00719 51.130626 C 561.96669 70.339415 581.69021 70.25188 652.75411 86.015147 L 640.35225 120.89967 L 323.27399 121.67662 C 344.63624 47.081055 332.57931 51.730415 428.70939 51.902689 L 429.48634 15.469156 z M 624.37837 159.36109 L 534.71162 400.30811 L 314.11186 159.90837 L 624.37837 159.36109 z M 661.78431 174.21107 L 696.49292 251.11436 C 644.28158 282.77771 609.22803 340.07974 609.00065 405.36073 L 573.76919 405.25811 L 661.78431 174.21107 z M 790.00044 265.00172 C 868.10948 265.00172 930.99958 327.89181 930.99958 406.00085 C 930.99958 484.10989 868.10948 546.99999 790.00044 546.99999 C 724.49554 546.99999 669.69251 502.76964 653.71186 442.42461 C 800.48989 442.50867 813.50712 450.09852 815.55669 424.79422 C 815.35378 417.42202 812.59975 412.38562 748.75374 271.08049 C 761.79027 267.1244 775.63858 265.00172 790.00044 265.00172 z M 214.99956 268.00201 C 222.08815 268.00201 229.05272 268.5165 235.85502 269.51682 C 190.90453 411.26348 196.28161 395.13305 196.00095 406.99769 C 195.78804 416.97792 203.8449 424.89387 213.96851 425.57117 C 232.18753 423.72901 228.00633 426.77761 273.85222 280.74593 C 322.41593 302.96875 355.99869 351.92333 355.99869 409.00115 C 355.99869 487.11019 293.1086 550.00029 214.99956 550.00029 C 136.89052 550.00029 74.000417 487.11019 74.000417 409.00115 C 74.000417 330.89211 136.89052 268.00201 214.99956 268.00201 z M 713.01408 287.72381 L 766.30594 405.81028 L 649.0013 405.47311 C 649.17971 356.03103 674.55819 312.74106 713.01408 287.72381 z "
           transform="matrix(0.39970047,0,0,0.39970047,-245.03592,44.97931)" />
      </g>
      <path
         d="m 247.33269,314.61796 -22.58953,0.009 -50.14969,59.44017 50.38549,59.46846 22.36315,0.009 -50.10253,-59.44959 50.09311,-59.4779 z m -19.08084,50.18743 0,18.43946 71.15466,0 0,-18.43946 -71.15466,0 z"
         id="rect3762"
         style="fill:#f7b500;fill-opacity:1;fill-rule:nonzero;stroke:none" />
    </g>
  </g>
</svg>
