<?xml version="1.0" encoding="UTF-8" standalone="no"?>
<!-- Created with Inkscape (http://www.inkscape.org/) -->

<svg
   version="1.1"
   width="480"
   height="480"
   id="svg5060"
   sodipodi:docname="right.svg"
   inkscape:version="1.4.3 (0d15f75, 2025-12-25)"
   xmlns:inkscape="http://www.inkscape.org/namespaces/inkscape"
   xmlns:sodipodi="http://sodipodi.sourceforge.net/DTD/sodipodi-0.dtd"
   xmlns="http://www.w3.org/2000/svg"
   xmlns:svg="http://www.w3.org/2000/svg">
  <sodipodi:namedview
     id="namedview1"
     pagecolor="#ffffff"
     bordercolor="#000000"
     borderopacity="0.25"
     inkscape:showpageshadow="2"
     inkscape:pageopacity="0.0"
     inkscape:pagecheckerboard="0"
     inkscape:deskcolor="#d1d1d1"
     inkscape:zoom="1.6833333"
     inkscape:cx="240.29703"
     inkscape:cy="240"
     inkscape:window-width="1920"
     inkscape:window-height="1010"
     inkscape:window-x="-6"
     inkscape:window-y="-6"
     inkscape:window-maximized="1"
     inkscape:current-layer="g5749" />
  <defs
     id="defs5064" />
  <g
     id="g5772">
    <path
       d="m 475.0789,210.09005 a 236.97404,236.97412 0 1 1 -0.0635,-0.49492"
       id="path4277"
       style="fill:black;fill-opacity:1;fill-rule:nonzero;stroke:none" />
    <g
       transform="matrix(-1,0,0,1,477,-2.999998)"
       id="g5749">
      <g
         transform="translate(281.18643,23.072034)"
         id="g5710"
         style="fill:#f7b500;fill-opacity:1">
        <path
           id="circle3726"
           style="baseline-shift:baseline;display:inline;overflow:visible;vector-effect:none;fill:#f7b500;enable-background:accumulate;stop-color:#000000;stop-opacity:1;opacity:1;fill-opacity:1"
           d="M 429.48635 15.469156 L 428.7094 51.902689 C 332.57932 51.730415 344.63625 47.081055 323.274 121.67662 L 640.35226 120.89967 L 652.75413 86.015147 C 581.69022 70.25188 561.9667 70.339415 576.0072 51.130626 L 734.92992 51.130626 L 736.47893 86.787209 L 693.84446 87.564158 L 681.43771 121.67662 C 701.11341 165.46583 717.90016 202.728 732.22281 234.47104 C 750.37793 228.33063 769.81161 225.00106 790.00045 225.00106 C 889.7271 225.00106 971.00025 306.2742 971.00025 406.00085 C 971.00025 505.7275 889.7271 587.00065 790.00045 587.00065 C 702.80489 587.00065 629.71517 524.86921 612.72415 442.59564 C 611.60225 442.60556 610.47711 442.61408 609.34271 442.62496 C 465.80799 436.91115 565.87142 482.53512 299.15927 201.17951 C 294.41627 215.90812 290.01896 229.66191 285.93647 242.5044 C 350.55825 270.17438 395.99936 334.4295 395.99936 409.00115 C 395.99936 508.7278 314.72622 590.00094 214.99957 590.00094 C 115.27292 590.00094 33.999771 508.7278 33.999771 409.00115 C 33.999771 309.2745 115.27292 228.00135 214.99957 228.00135 C 226.28714 228.00135 237.33776 229.03969 248.06143 231.03096 C 248.0665 231.01499 248.07102 230.99807 248.07609 230.9821 C 319.3984 1.768727 296.91988 16.761229 429.48635 15.469156 z M 624.37838 159.36109 L 314.11187 159.90837 L 534.71163 400.30811 L 624.37838 159.36109 z M 661.78432 174.21107 L 573.7692 405.25811 L 609.00066 405.36073 C 609.22804 340.07974 644.28159 282.77771 696.49293 251.11436 L 661.78432 174.21107 z M 790.00045 265.00172 C 775.63859 265.00172 761.79028 267.1244 748.75375 271.08049 C 812.59976 412.38563 815.35379 417.42202 815.5567 424.79422 C 813.50713 450.09852 800.4899 442.50867 653.71187 442.42461 C 669.69252 502.76964 724.49555 546.99999 790.00045 546.99999 C 868.10949 546.99999 930.99959 484.10989 930.99959 406.00085 C 930.99959 327.89181 868.10949 265.00172 790.00045 265.00172 z M 214.99957 268.00201 C 136.89053 268.00201 74.000427 330.89211 74.000427 409.00115 C 74.000427 487.11019 136.89053 550.00029 214.99957 550.00029 C 293.10861 550.00029 355.9987 487.11019 355.9987 409.00115 C 355.9987 351.92333 322.41594 302.96875 273.85223 280.74593 C 228.00634 426.77761 232.18754 423.72901 213.96852 425.57117 C 203.84491 424.89387 195.78805 416.97792 196.00096 406.99769 C 196.28162 395.13304 190.90454 411.26349 235.85503 269.51682 C 229.05273 268.5165 222.08816 268.00201 214.99957 268.00201 z M 713.01409 287.72381 C 674.5582 312.74106 649.17972 356.03103 649.00131 405.47311 L 766.30595 405.81028 L 713.01409 287.72381 z "
           transform="matrix(0.39970047,0,0,0.39970047,-245.03592,44.97931)" />
      </g>
      <path
         d="m 247.33269,314.61796 -22.58953,0.009 -50.14969,59.44017 50.38549,59.46846 22.36315,0.009 -50.10253,-59.44959 50.09311,-59.4779 z m -19.08084,50.18743 0,18.43946 71.15466,0 0,-18.43946 -71.15466,0 z"
         id="rect3762"
         style="fill:#f7b500;fill-opacity:1;fill-rule:nonzero;stroke:none" />
    </g>
  </g>
</svg>
