<?xml version="1.0" encoding="utf-8"?>
<!DOCTYPE svg PUBLIC "-//W3C//DTD SVG 1.1//EN" "http://www.w3.org/Graphics/SVG/1.1/DTD/svg11.dtd">
<svg version="1.1" id="RiLSA_812" xmlns="http://www.w3.org/2000/svg" xmlns:xlink="http://www.w3.org/1999/xlink" x="0px" y="0px"
	 width="600px" height="600px" viewBox="0 0 600 600" enable-background="new 0 0 600 600" xml:space="preserve">
<circle cx="300" cy="300" r="300"/>
<path fill="#00C035" d="M507.639,275.361C490.762,258.482,467.869,249,443.998,249c-9.473,0-18.888,1.497-27.893,4.432L390,195
	l6.75-18H417v-18h-76.5c-2.484,0-4.5,2.014-4.5,4.5c0,2.082,1.427,3.891,3.451,4.376L377.527,177l-6.75,18H210l7.22-23.323
	c1.136-3.672,3.418-6.883,6.512-9.165c3.096-2.282,6.837-3.512,10.684-3.512h29.583v-18h-29.583c-7.689,0-15.175,2.461-21.364,7.023
	c-6.188,4.562-10.753,10.985-13.026,18.33l-26.141,84.441c-5.888-1.194-11.878-1.795-17.885-1.795
	c-23.869,0-46.762,9.481-63.64,26.361C75.482,292.238,66,315.13,66,338.999s9.481,46.762,26.359,63.64
	C109.238,419.518,132.13,429,155.999,429c23.872,0,46.763-9.482,63.642-26.361C236.517,385.762,246,362.868,246,338.999
	c0-17.683-5.209-34.974-14.977-49.713c-9.768-14.74-23.66-26.276-39.943-33.169l7.152-23.107L304.63,351.052
	c3.413,3.787,8.271,5.949,13.37,5.949h37.817c4.149,20.324,15.191,38.592,31.26,51.713c16.07,13.12,36.179,20.287,56.921,20.287
	c23.87,0,46.764-9.481,63.641-26.36c16.879-16.879,26.359-39.771,26.359-63.641S524.518,292.239,507.639,275.361z M216.515,299.988
	C224.013,311.618,228,325.162,228,339c0,19.096-7.586,37.409-21.089,50.911c-13.502,13.504-31.816,21.09-50.912,21.09
	s-37.408-7.586-50.911-21.09C91.587,376.409,84.001,358.095,84.001,339c0-19.094,7.586-37.408,21.088-50.911
	c13.503-13.502,31.815-21.088,50.911-21.088c4.202,0,8.394,0.368,12.527,1.099l-21.126,68.239c-0.267,0.862-0.402,1.759-0.402,2.661
	c0,4.971,4.03,9,9,9c3.946,0,7.431-2.568,8.598-6.339l21.125-68.239C198.326,279.135,209.017,288.357,216.515,299.988z
	 M317.135,338.042L204.428,213h159.599L317.135,338.042z M353.998,339h-18l45.005-120.01l18.631,41.704
	c-13.854,7.849-25.377,19.232-33.395,32.989C358.223,307.439,353.998,323.078,353.998,339z M407.021,277.222L434.62,339h-62.622
	C371.998,313.684,385.296,290.226,407.021,277.222z M494.911,389.911c-13.503,13.504-31.816,21.09-50.911,21.09
	c-15.964,0-31.473-5.308-44.092-15.079c-12.617-9.775-21.631-23.468-25.622-38.921H448.5c4.971,0,9-4.03,9-9.001
	c0-1.264-0.268-2.518-0.782-3.671l-33.22-74.348c6.655-1.977,13.563-2.98,20.502-2.98c19.096,0,37.409,7.586,50.911,21.088
	C508.413,301.593,516,319.906,516,339C516,358.095,508.412,376.409,494.911,389.911z"/>
</svg>
