<?xml version="1.0" encoding="utf-8"?>
<!DOCTYPE svg PUBLIC "-//W3C//DTD SVG 1.1//EN" "http://www.w3.org/Graphics/SVG/1.1/DTD/svg11.dtd">
<svg version="1.1" id="RiLSA_841-53" xmlns="http://www.w3.org/2000/svg" xmlns:xlink="http://www.w3.org/1999/xlink" x="0px"
	 y="0px" width="600px" height="600px" viewBox="0 0 600 600" enable-background="new 0 0 600 600" xml:space="preserve">
<circle fill="#F7B500" cx="300" cy="300" r="300"/>
<path d="M453,367.5c0,4.67,1.038,9.283,3.04,13.5h-37.579c2.001-4.217,3.039-8.83,3.039-13.5H453z M468.59,383.41
	c4.219,4.221,9.942,6.59,15.91,6.59c5.967,0,11.69-2.367,15.909-6.59c4.219-4.219,6.591-9.941,6.591-15.91h-45.001
	C462,373.469,464.37,379.191,468.59,383.41z M194.089,383.41c4.22,4.221,9.944,6.59,15.91,6.59c5.967,0,11.69-2.367,15.91-6.59
	c4.218-4.219,6.59-9.941,6.59-15.91h-45C187.501,373.469,189.87,379.191,194.089,383.41z M374.09,383.41
	c4.218,4.221,9.942,6.59,15.91,6.59c5.967,0,11.69-2.367,15.908-6.59c4.22-4.219,6.592-9.941,6.592-15.91h-45.002
	C367.499,373.469,369.87,379.191,374.09,383.41z M99.59,383.41c4.219,4.221,9.943,6.59,15.909,6.59c5.968,0,11.69-2.367,15.91-6.59
	c4.219-4.219,6.59-9.941,6.59-15.91h-45C93,373.469,95.37,379.191,99.59,383.41z M146.999,367.5c0,4.67-1.037,9.283-3.039,13.5
	h37.579c-2.002-4.217-3.039-8.83-3.039-13.5H146.999z M552,311.125V340.5c0,4.775-1.896,9.354-5.271,12.73
	c-3.375,3.375-7.955,5.27-12.728,5.27H65.999c-4.774,0-9.353-1.895-12.727-5.27C49.897,349.854,48,345.275,48,340.5v-29.375
	c0-1.396,0.327-2.775,0.95-4.023l30.55-61.101h-9.001v-13.5h81l4.5-4.5h36.9l-49.949-33.3l58.051-38.7l58.049,38.7l-49.948,33.3H246
	l4.5,4.5h279v13.5h-9l30.55,61.101C551.674,308.35,552,309.729,552,311.125z M106.5,246.001H87.549l-20.103,40.207
	c-1.094,2.187-1.662,4.598-1.662,7.043c0,4.178,1.659,8.183,4.613,11.136c2.954,2.953,6.959,4.611,11.136,4.611h24.966
	L106.5,246.001L106.5,246.001z M151.499,255.001c0-4.97-4.029-9-9-9h-18c-4.97,0-9,4.03-9,9V340.5c0,4.973,4.03,9,9,9h18
	c4.971,0,9-4.027,9-9V255.001z M201.001,228.001l49.949-33.3l-49.949-33.3l-49.951,33.3L201.001,228.001z M241.5,255.001
	c0-4.97-4.03-9-9-9h-62.999c-4.971,0-9.002,4.03-9.002,9v45c0,4.971,4.031,8.999,9.002,8.999H232.5c4.97,0,9-4.027,9-8.999V255.001z
	 M331.499,255.001c0-4.97-4.028-9-9-9h-63c-4.969,0-9,4.03-9,9v45c0,4.971,4.031,8.999,9,8.999h63c4.972,0,9-4.027,9-8.999V255.001z
	 M421.5,255.001c0-4.97-4.029-9-9-9h-63.001c-4.97,0-9,4.03-9,9v45c0,4.971,4.03,8.999,9,8.999H412.5c4.971,0,9-4.027,9-8.999
	V255.001L421.5,255.001z M484.501,255.001c0-4.97-4.03-9-9.001-9h-36c-4.971,0-9,4.03-9,9V340.5c0,4.973,4.029,9,9,9h36
	c4.971,0,9.001-4.027,9.001-9V255.001z M534.216,293.25c0-2.445-0.569-4.856-1.663-7.043l-20.102-40.207h-18.95V309h24.966
	c4.178,0,8.183-1.658,11.137-4.611C532.557,301.434,534.216,297.429,534.216,293.25z"/>
</svg>
