<?xml version="1.0" encoding="utf-8"?>
<!DOCTYPE svg PUBLIC "-//W3C//DTD SVG 1.1//EN" "http://www.w3.org/Graphics/SVG/1.1/DTD/svg11.dtd">
<svg version="1.1" id="RiLSA_841-54" xmlns="http://www.w3.org/2000/svg" xmlns:xlink="http://www.w3.org/1999/xlink" x="0px"
	 y="0px" width="600px" height="600px" viewBox="0 0 600 600" enable-background="new 0 0 600 600" xml:space="preserve">
<circle fill="#F7B500" cx="300" cy="300" r="300"/>
<path d="M439.273,336.227c5.908,5.908,9.227,13.92,9.227,22.273c0,8.355-3.318,16.367-9.227,22.275
	C433.366,386.684,425.354,390,417,390c-8.355,0-16.367-3.316-22.274-9.225c-5.906-5.908-9.226-13.92-9.226-22.275
	c0-8.354,3.319-16.365,9.226-22.273C400.633,330.32,408.645,327,417,327C425.354,327,433.366,330.32,439.273,336.227z M169.501,327
	c-8.356,0-16.368,3.32-22.276,9.227c-5.907,5.908-9.226,13.92-9.226,22.273c0,8.355,3.319,16.367,9.226,22.275
	c5.908,5.908,13.92,9.225,22.276,9.225c8.354,0,16.366-3.316,22.273-9.225s9.227-13.92,9.227-22.275
	c0-8.354-3.319-16.365-9.227-22.273C185.867,330.32,177.855,327,169.501,327z M534,294.783V345c0,4.775-1.896,9.354-5.271,12.73
	c-3.375,3.375-7.955,5.27-12.728,5.27h-58.5v-4.5c0-10.74-4.267-21.043-11.862-28.637C438.044,322.266,427.741,318,417.001,318
	c-10.741,0-21.042,4.266-28.639,11.863c-7.596,7.594-11.862,17.895-11.862,28.637v4.5H210.001v-4.5
	c0-10.74-4.268-21.043-11.863-28.637C190.543,322.266,180.241,318,169.501,318c-10.742,0-21.044,4.266-28.639,11.863
	c-7.595,7.594-11.863,17.895-11.863,28.637v4.5H75c-4.97,0-9.001-4.029-9.001-9v-45.723c0-3.096,0.533-6.166,1.573-9.082
	l23.346-65.368c0.173-0.485,0.262-0.997,0.262-1.513c0-2.134-1.5-3.976-3.591-4.408c-2.091-0.432-3.59-2.272-3.59-4.407v-9
	c0-2.484,2.014-4.5,4.5-4.5h408.779c3.912,0,7.717,1.274,10.84,3.63c3.122,2.356,5.393,5.665,6.468,9.425l18.374,64.309
	C533.65,289.777,534,292.274,534,294.783z M149.701,234.751c0-3.728-3.022-6.75-6.751-6.75h-36.192
	c-2.853,0-5.398,1.792-6.356,4.479l-17.68,49.5c-0.259,0.728-0.393,1.497-0.393,2.271c0,3.728,3.021,6.75,6.75,6.75h53.871
	c3.728,0,6.751-3.021,6.751-6.75V234.751z M222.202,284.251c0-0.626-0.087-1.251-0.259-1.854l-14.143-49.5
	c-0.828-2.898-3.477-4.895-6.491-4.895H168.15c-3.728,0-6.75,3.021-6.75,6.75v49.5c0,3.728,3.021,6.75,6.75,6.75h47.302
	C219.179,291,222.202,287.979,222.202,284.251z M293.301,284.251c0-0.626-0.088-1.251-0.259-1.854l-14.144-49.5
	c-0.827-2.898-3.476-4.895-6.49-4.895h-45.359c-3.728,0-6.751,3.021-6.751,6.75c0,0.627,0.088,1.251,0.259,1.854l14.144,49.501
	c0.828,2.897,3.476,4.895,6.489,4.895h45.36C290.279,291,293.301,287.979,293.301,284.251z M364.401,284.251
	c0-0.626-0.088-1.251-0.26-1.854l-14.144-49.5c-0.826-2.898-3.476-4.895-6.49-4.895h-45.358c-3.728,0-6.75,3.021-6.75,6.75
	c0,0.627,0.088,1.251,0.261,1.854l14.141,49.501c0.828,2.897,3.477,4.895,6.491,4.895h45.358
	C361.381,291,364.401,287.979,364.401,284.251z M435.501,284.251c0-0.626-0.088-1.251-0.258-1.854l-14.144-49.5
	c-0.828-2.898-3.477-4.895-6.49-4.895H369.25c-3.728,0-6.75,3.021-6.75,6.75c0,0.627,0.088,1.251,0.26,1.854l14.143,49.501
	c0.827,2.897,3.476,4.895,6.49,4.895h45.358C432.479,291,435.501,287.979,435.501,284.251z M506.601,284.251
	c0-0.626-0.087-1.251-0.259-1.854l-14.143-49.5c-0.828-2.898-3.478-4.895-6.491-4.895h-45.359c-3.727,0-6.75,3.021-6.75,6.75
	c0,0.627,0.087,1.251,0.26,1.854l14.143,49.501c0.828,2.897,3.477,4.895,6.49,4.895h45.359
	C503.579,291,506.601,287.979,506.601,284.251z"/>
</svg>
