<?xml version="1.0" encoding="utf-8"?>
<!DOCTYPE svg PUBLIC "-//W3C//DTD SVG 1.1//EN" "http://www.w3.org/Graphics/SVG/1.1/DTD/svg11.dtd">
<svg version="1.1" id="RiLSA_841-50" xmlns="http://www.w3.org/2000/svg" xmlns:xlink="http://www.w3.org/1999/xlink" x="0px" y="0px"
	 width="600px" height="600px" viewBox="0 0 600 600" enable-background="new 0 0 600 600" xml:space="preserve">
<circle fill="#F7B500" cx="300" cy="300" r="300"/>
<path d="M314.259,339.218l-93.681,172.537c-3.408,6.275-8.445,11.516-14.583,15.167c-6.139,3.65-13.147,5.577-20.289,5.577
	c-6.613,0-13.122-1.65-18.934-4.809l105.402-194.121c1.577-2.907,2.404-6.161,2.404-9.469v-4.881h79.359v4.881
	c0,3.308,0.827,6.562,2.404,9.469l78.798,145.125c3.156,5.813,4.81,12.32,4.81,18.935c0,7.142-1.929,14.148-5.579,20.287
	c-3.651,6.138-8.893,11.177-15.167,14.583L314.259,339.218 M353.94,194.212V309.3H274.58v-95.179l-51.543,79.368
	c-6.402,9.861-17.361,15.811-29.118,15.811c-6.712,0-13.281-1.944-18.91-5.601l97.653-150.373
	c9.146-14.086,24.803-22.586,41.598-22.586c11.661,0,22.95,4.108,31.882,11.604l66.608,55.891
	c6.739,5.652,10.63,14.001,10.63,22.797v48.59c0,9.208-3.658,18.038-10.169,24.55s-15.342,10.169-24.551,10.169v-80.995
	L353.94,194.212 M334.1,76.181c0-10.523-4.181-20.616-11.623-28.058c-7.44-7.442-17.533-11.623-28.058-11.623
	c-10.523,0-20.616,4.182-28.058,11.623c-7.442,7.44-11.622,17.533-11.622,28.058c0,10.523,4.18,20.616,11.622,28.06
	c7.44,7.438,17.533,11.62,28.058,11.62s20.617-4.182,28.058-11.62C329.919,96.797,334.1,86.704,334.1,76.181"/>
</svg>
