<?xml version="1.0" encoding="utf-8"?>
<!DOCTYPE svg PUBLIC "-//W3C//DTD SVG 1.1//EN" "http://www.w3.org/Graphics/SVG/1.1/DTD/svg11.dtd">
<svg version="1.1" id="RiLSA_841-5X" xmlns="http://www.w3.org/2000/svg" xmlns:xlink="http://www.w3.org/1999/xlink" x="0px"
	 y="0px" width="600px" height="600px" viewBox="0 0 600 600" enable-background="new 0 0 600 600" xml:space="preserve">
<circle fill="#F7B500" cx="300" cy="300" r="300"/>
<path d="M252.136,124.515c0-14.396,11.287-25.681,25.682-25.681h0.781c13.618,0.389,24.899,11.676,24.899,25.681
	c0,13.619-11.281,24.9-24.899,25.682h-0.781C263.423,150.196,252.136,138.52,252.136,124.515z M536.577,304.281l-32.297,17.123
	l-6.617-39.3c-2.724-15.178-17.12-25.292-32.296-22.568c-5.834,1.167-10.894,3.891-14.788,7.782l-6.22,6.223
	c16.729,18.678,21.788,45.141,13.227,68.873l33.85,55.641l-12.835,81.32l-24.126,8.172l12.842-80.929l-60.699-47.47l7.777,60.308
	l-38.131,72.368h-25.682l38.524-72.368l-38.134-67.315c-23.735,5.838-48.25,8.166-72.374,7.008
	c-15.176-0.779-30.743-2.724-45.528-6.232l40.468,117.508l-4.277,21.401h-21.404l4.28-21.401l-51.363-118.283l-55.641,33.076v59.525
	l-21.401,12.843v-89.492l65.374-42.409l-3.505-8.17c-7.391-16.736-8.558-35.801-2.724-53.7l-24.9-45.134l-59.926,12.838
	L85.213,218.68l51.362-59.926v-25.679l17.12,17.121c29.182,0,56.029,14.786,71.983,39.3l16.731,26.068l36.188-18.286l0.386-0.387
	l-0.386-0.78l-1.943-3.505c-5.062-9.339-3.892-20.233,1.943-28.011c1.942-2.724,4.666-5.062,7.782-7.01
	c12.45-7.001,28.013-2.329,35.02,9.733l34.628,62.256c5.448,9.338,3.116,21.4-5.836,27.623l31.129-5.447
	c17.124-3.11,35.021,0.781,49.807,10.509l11.28-11.676c20.234-19.839,52.531-19.839,72.766,0
	c6.229,6.614,10.896,14.399,13.231,22.957L536.577,304.281z M303.11,240.078l-13.615-24.514l-10.896,5.839l-24.515,12.063
	l15.176,23.732l9.339-5.058L303.11,240.078z"/>
</svg>
