<?xml version="1.0" encoding="utf-8"?>
<!DOCTYPE svg PUBLIC "-//W3C//DTD SVG 1.1//EN" "http://www.w3.org/Graphics/SVG/1.1/DTD/svg11.dtd">
<svg version="1.1" id="RiLSA_841-52" xmlns="http://www.w3.org/2000/svg" xmlns:xlink="http://www.w3.org/1999/xlink" x="0px"
	 y="0px" width="600px" height="600px" viewBox="0 0 600 600" enable-background="new 0 0 600 600" xml:space="preserve">
<circle fill="#F7B500" cx="300" cy="300" r="300"/>
<path d="M305.251,190.209l-49.58,91.313c-1.804,3.321-4.471,6.095-7.718,8.027c-3.249,1.933-6.958,2.953-10.738,2.953
	c-3.5,0-6.944-0.876-10.021-2.545l55.783-102.737c0.835-1.538,1.273-3.261,1.273-5.01v-2.582h42v2.582
	c0,1.751,0.438,3.473,1.272,5.01l41.701,76.807c1.67,3.075,2.545,6.52,2.545,10.02c0,3.78-1.02,7.489-2.952,10.738
	c-1.934,3.248-4.706,5.914-8.027,7.718L305.251,190.209 M326.25,113.466v60.91h-42v-50.372l-27.278,42.004
	c-3.389,5.219-9.188,8.368-15.411,8.368c-3.552,0-7.029-1.03-10.008-2.965l51.682-79.583c4.84-7.455,13.125-11.953,22.016-11.953
	c6.171,0,12.145,2.173,16.872,6.141l35.252,29.579c3.566,2.993,5.624,7.41,5.624,12.065v25.714c0,4.873-1.936,9.547-5.382,12.994
	c-3.445,3.446-8.119,5.382-12.991,5.382v-42.865L326.25,113.466 M315.749,51c0-5.57-2.212-10.912-6.15-14.849
	c-3.939-3.938-9.281-6.151-14.85-6.151s-10.912,2.211-14.849,6.151c-3.939,3.938-6.15,9.279-6.15,14.849
	c0,5.57,2.211,10.912,6.15,14.85c3.938,3.938,9.28,6.151,14.849,6.151s10.911-2.212,14.85-6.151
	C313.538,61.912,315.749,56.57,315.749,51"/>
<path d="M455.729,424.771c-12.658-12.658-29.827-19.77-47.729-19.77c-7.105,0-14.165,1.121-20.922,3.324l-19.58-43.824l5.063-13.5
	h15.188v-13.5h-57.375c-1.864,0-3.375,1.51-3.375,3.373c0,1.563,1.071,2.918,2.589,3.283l28.555,6.844l-5.063,13.5H232.5
	l5.415-17.492c0.853-2.756,2.565-5.164,4.885-6.875c2.319-1.711,5.128-2.633,8.01-2.633H273v-13.5h-22.19
	c-5.765,0-11.381,1.846-16.021,5.268c-4.642,3.422-8.066,8.238-9.769,13.748l-19.606,63.33c-4.416-0.895-8.909-1.344-13.413-1.344
	c-17.903,0-35.073,7.111-47.731,19.77c-12.659,12.66-19.771,29.828-19.771,47.73s7.112,35.072,19.771,47.73
	c12.658,12.658,29.829,19.771,47.731,19.771c17.901,0,35.07-7.113,47.729-19.771s19.771-29.828,19.771-47.73
	c0-13.264-3.906-26.229-11.231-37.285c-7.326-11.055-17.747-19.707-29.959-24.877l5.365-17.328l79.797,88.529
	c2.561,2.84,6.204,4.461,10.027,4.461h28.364c3.112,15.244,11.394,28.945,23.446,38.785c12.051,9.84,27.132,15.215,42.69,15.215
	c17.902,0,35.071-7.111,47.729-19.77c12.659-12.658,19.771-29.828,19.771-47.73S468.389,437.43,455.729,424.771z M237.386,443.242
	c5.624,8.723,8.614,18.881,8.614,29.26c0,14.322-5.689,28.057-15.815,38.184c-10.127,10.125-23.862,15.814-38.184,15.814
	c-14.323,0-28.057-5.689-38.184-15.814c-10.128-10.127-15.817-23.861-15.817-38.184c0-14.32,5.689-28.059,15.817-38.186
	c10.126-10.127,23.861-15.814,38.184-15.814c3.149,0,6.293,0.273,9.396,0.822l-15.844,51.18c-0.201,0.646-0.302,1.322-0.302,1.998
	c0,3.727,3.021,6.75,6.75,6.75c2.959,0,5.573-1.928,6.448-4.754l15.844-51.18C223.746,427.604,231.762,434.52,237.386,443.242z
	 M312.852,471.781l-84.531-93.779h119.7L312.852,471.781z M340.499,472.502h-13.5l33.753-90.006l13.975,31.275
	c-10.389,5.889-19.031,14.426-25.045,24.744C343.668,448.832,340.499,460.561,340.499,472.502z M380.266,426.168l20.7,46.334
	h-46.967C353.999,453.514,363.973,435.92,380.266,426.168z M446.185,510.686c-10.127,10.127-23.861,15.816-38.184,15.816
	c-11.974,0-23.604-3.979-33.068-11.309c-9.464-7.332-16.225-17.6-19.218-29.191h0.001h55.66c3.728,0,6.75-3.023,6.75-6.75
	c0-0.949-0.198-1.887-0.587-2.752l-24.914-55.764c4.991-1.482,10.169-2.234,15.376-2.234c14.322,0,28.057,5.688,38.184,15.814
	C456.311,444.443,462,458.182,462,472.502C462,486.824,456.311,500.559,446.185,510.686z"/>
</svg>
