<?xml version="1.0" encoding="UTF-8" standalone="no"?>
<!-- Uploaded to: SVG Repo, www.svgrepo.com, Generator: SVG Repo Mixer Tools -->

<svg
   width="800px"
   height="800px"
   viewBox="0 0 24 24"
   fill="none"
   version="1.1"
   id="svg4"
   sodipodi:docname="side-color-combinations.svg"
   inkscape:version="1.4.3 (0d15f75, 2025-12-25)"
   xmlns:inkscape="http://www.inkscape.org/namespaces/inkscape"
   xmlns:sodipodi="http://sodipodi.sourceforge.net/DTD/sodipodi-0.dtd"
   xmlns="http://www.w3.org/2000/svg"
   xmlns:svg="http://www.w3.org/2000/svg">
  <defs
     id="defs4" />
  <sodipodi:namedview
     id="namedview4"
     pagecolor="#ffffff"
     bordercolor="#000000"
     borderopacity="0.25"
     inkscape:showpageshadow="2"
     inkscape:pageopacity="0.0"
     inkscape:pagecheckerboard="0"
     inkscape:deskcolor="#d1d1d1"
     inkscape:zoom="1.01"
     inkscape:cx="400"
     inkscape:cy="400"
     inkscape:window-width="1920"
     inkscape:window-height="1010"
     inkscape:window-x="-6"
     inkscape:window-y="-6"
     inkscape:window-maximized="1"
     inkscape:current-layer="svg4" />
  <path
     style="baseline-shift:baseline;display:inline;overflow:visible;vector-effect:none;fill:#000000;stroke-linejoin:round;enable-background:accumulate;stop-color:#000000;stop-opacity:1;opacity:1"
     d="M 7,2 C 6.05719,2 5.3297886,1.9935765 4.671875,2.0820313 4.0139614,2.170486 3.3614754,2.3963288 2.8789063,2.8789063 2.3963288,3.3614754 2.170486,4.0139614 2.0820313,4.671875 1.9935765,5.3297886 2,6.05719 2,7 v 5 5 c 0,0.9428 -0.00642,1.670214 0.082031,2.328125 0.088455,0.657911 0.3143092,1.310395 0.796875,1.792969 0.4825675,0.482584 1.1350533,0.708418 1.7929687,0.796875 C 5.3297904,22.006425 6.05719,22 7,22 c 0.94281,0 1.6702103,0.0064 2.328125,-0.08203 0.6579147,-0.08846 1.310405,-0.314286 1.792969,-0.796875 0.482572,-0.482573 0.708418,-1.135056 0.796875,-1.792969 C 12.006425,18.670212 12,17.9428 12,17 V 12 7 C 12,6.05719 12.006425,5.3297904 11.917969,4.671875 11.829512,4.0139596 11.603678,3.3614738 11.121094,2.8789063 10.638528,2.396324 9.9860379,2.1704861 9.328125,2.0820313 8.6702121,1.9935764 7.94281,2 7,2 Z m 0,2 c 0.94281,0 1.6292072,0.00646 2.0605469,0.064453 C 9.4918865,4.1224457 9.6038271,4.189761 9.7070313,4.2929687 9.8102472,4.3961812 9.8775534,4.5081136 9.9355469,4.9394531 9.9935403,5.3707927 10,6.05719 10,7 v 5 5 c 0,0.9428 -0.00646,1.62921 -0.064453,2.060547 -0.057994,0.431337 -0.125288,0.543257 -0.2285156,0.646484 C 9.6038254,19.810242 9.4918847,19.877554 9.0605469,19.935547 8.6292091,19.99354 7.94281,20 7,20 6.05719,20 5.3707927,19.99354 4.9394531,19.935547 4.5081136,19.877553 4.3961812,19.810247 4.2929687,19.707031 4.1897445,19.603805 4.1224458,19.491886 4.0644531,19.060547 4.0064604,18.629208 4,17.9428 4,17 V 12 7 C 4,6.05719 4.0064604,5.3707945 4.0644531,4.9394531 4.1224459,4.5081117 4.1897562,4.3961796 4.2929687,4.2929687 4.3961796,4.1897562 4.5081117,4.1224459 4.9394531,4.0644531 5.3707945,4.0064604 6.05719,4 7,4 Z"
     id="path1" />
  <path
     style="baseline-shift:baseline;display:inline;overflow:visible;vector-effect:none;fill:#000000;stroke-linejoin:round;enable-background:accumulate;stop-color:#000000;stop-opacity:1;opacity:1"
     d="m 15.5,2.828125 c -0.682452,0 -1.304268,0.3024098 -1.832031,0.7050781 -0.527764,0.4026683 -1.03647,0.9212153 -1.703125,1.5878906 l -1.671875,1.671875 1.414062,1.4140626 1.671875,-1.6718751 C 14.045551,5.8684916 14.534848,5.3870436 14.880859,5.1230469 15.226871,4.8590502 15.354052,4.828125 15.5,4.828125 c 0.145948,0 0.273129,0.030925 0.619141,0.2949219 0.346011,0.2639967 0.835308,0.7454447 1.501953,1.4121093 l 0.84375,0.84375 c 0.666655,0.6666754 1.148104,1.1559362 1.412109,1.5019532 0.264006,0.3460169 0.294922,0.473184 0.294922,0.6191406 0,0.1459319 -0.03092,0.2731233 -0.294922,0.619141 -0.264005,0.346017 -0.745459,0.835303 -1.412109,1.501953 l -8.171875,8.171875 1.414062,1.414062 8.171875,-8.171875 c 0.66665,-0.66665 1.185221,-1.175367 1.587891,-1.703125 0.40267,-0.527757 0.705078,-1.149563 0.705078,-1.832031 0,-0.6824734 -0.302409,-1.3042757 -0.705078,-1.8320313 -0.40267,-0.5277555 -0.921246,-1.0364603 -1.587891,-1.703125 l -0.84375,-0.84375 C 18.368501,4.4544184 17.859795,3.9358714 17.332031,3.5332031 16.804268,3.1305348 16.182452,2.828125 15.5,2.828125 Z"
     id="path2" />
  <path
     style="baseline-shift:baseline;display:inline;overflow:visible;vector-effect:none;fill:#000000;stroke-linejoin:round;enable-background:accumulate;stop-color:#000000;stop-opacity:1;opacity:1"
     d="m 18.5,12 v 2 c 0.4647,0 0.652439,0.01101 0.695312,0.01953 0.399518,0.07946 0.705696,0.385639 0.785157,0.785157 C 19.98899,14.847561 20,15.0353 20,15.5 V 17 c 0,0.9428 -0.0065,1.62921 -0.06445,2.060547 -0.05799,0.431337 -0.125288,0.543257 -0.228516,0.646484 -0.103227,0.103228 -0.215147,0.170522 -0.646484,0.228516 C 18.62921,19.99354 17.9428,20 17,20 H 7 v 2 h 10 c 0.9428,0 1.670212,0.0064 2.328125,-0.08203 0.657913,-0.08846 1.310396,-0.314303 1.792969,-0.796875 0.482572,-0.482573 0.708418,-1.135056 0.796875,-1.792969 C 22.006425,18.670212 22,17.9428 22,17 v -1.5 c 0,-0.4647 0.01164,-0.742411 -0.05664,-1.085937 C 21.70722,13.22678 20.77322,12.29278 19.585937,12.056641 19.242411,11.988362 18.9647,12 18.5,12 Z"
     id="path3" />
  <path
     style="baseline-shift:baseline;display:inline;overflow:visible;vector-effect:none;fill:#000000;stroke-linecap:round;stroke-linejoin:round;enable-background:accumulate;stop-color:#000000;stop-opacity:1;opacity:1"
     d="m 7,16 a 1,1 0 0 0 -1,1 v 0.0098 a 1,1 0 0 0 1,1 1,1 0 0 0 1,-1 V 17 A 1,1 0 0 0 7,16 Z"
     id="path4" />
</svg>
