<?xml version="1.0" encoding="UTF-8" standalone="no"?>
<!-- Uploaded to: SVG Repo, www.svgrepo.com, Generator: SVG Repo Mixer Tools -->

<svg
   version="1.1"
   id="Layer_1"
   viewBox="0 0 512.003 512.003"
   xml:space="preserve"
   sodipodi:docname="side-volume-flow.svg"
   inkscape:version="1.4.3 (0d15f75, 2025-12-25)"
   xmlns:inkscape="http://www.inkscape.org/namespaces/inkscape"
   xmlns:sodipodi="http://sodipodi.sourceforge.net/DTD/sodipodi-0.dtd"
   xmlns="http://www.w3.org/2000/svg"
   xmlns:svg="http://www.w3.org/2000/svg"><defs
   id="defs12" /><sodipodi:namedview
   id="namedview12"
   pagecolor="#ffffff"
   bordercolor="#000000"
   borderopacity="0.25"
   inkscape:showpageshadow="2"
   inkscape:pageopacity="0.0"
   inkscape:pagecheckerboard="0"
   inkscape:deskcolor="#d1d1d1"
   inkscape:zoom="0.55794819"
   inkscape:cx="241.95795"
   inkscape:cy="202.52777"
   inkscape:window-width="1920"
   inkscape:window-height="1010"
   inkscape:window-x="-6"
   inkscape:window-y="-6"
   inkscape:window-maximized="1"
   inkscape:current-layer="Layer_1" />
<path
   d="M287.644,151.811L185.246,49.413c-1.621-1.536-3.755-2.475-6.059-2.475H8.524c-3.413,0-6.571,2.048-7.851,5.291  c-1.365,3.157-0.597,6.827,1.792,9.301l2.475,2.475l93.95,93.865L4.94,251.735l-2.475,2.475c-2.389,2.475-3.157,6.144-1.792,9.301  c1.28,3.243,4.437,5.291,7.851,5.291h170.664c2.304,0,4.437-0.939,6.059-2.475l102.398-102.398  C290.972,160.601,290.972,155.139,287.644,151.811z M175.689,251.735h-146.6l87.892-87.807c3.328-3.328,3.328-8.789,0-12.117  L29.089,64.005h146.6l93.865,93.865L175.689,251.735z"
   id="path1" />


<path
   d="M503.449,217.602h-47.701l53.759-53.674c3.328-3.328,3.328-8.789,0-12.117L407.109,49.413  c-1.621-1.536-3.755-2.475-6.059-2.475H230.387c-3.413,0-6.571,2.048-7.851,5.291c-1.365,3.157-0.597,6.827,1.792,9.301l2.475,2.475  l93.95,93.865l-93.95,93.865l-2.475,2.475c-2.389,2.475-3.157,6.144-1.792,9.301c1.28,3.243,4.437,5.291,7.851,5.291h68.266v187.73  c0,4.693,3.84,8.533,8.533,8.533h196.263c4.693,0,8.533-3.84,8.533-8.533V226.135C511.982,221.442,508.142,217.602,503.449,217.602z   M250.952,251.735l87.892-87.807c3.328-3.328,3.328-8.789,0-12.117l-87.892-87.807h146.6l93.865,93.865l-59.732,59.732H307.185  c-4.693,0-8.533,3.84-8.533,8.533v25.6H250.952z M494.916,447.998H315.719V285.868h179.197V447.998z M494.916,268.801H315.719  v-34.133h179.197V268.801z"
   id="path4" />






<path
   d="M477.849,337.067c0,4.693-3.84,8.533-8.533,8.533h-85.332c-4.693,0-8.533-3.84-8.533-8.533s3.84-8.533,8.533-8.533h85.332  C474.009,328.534,477.849,332.374,477.849,337.067z"
   id="path9" />
<path
   d="M477.849,396.799c0,4.693-3.84,8.533-8.533,8.533h-85.332c-4.693,0-8.533-3.84-8.533-8.533c0-4.693,3.84-8.533,8.533-8.533  h85.332C474.009,388.266,477.849,392.106,477.849,396.799z"
   id="path10" />
<path
   d="M358.385,337.067c0,4.693-3.84,8.533-8.533,8.533h-8.533c-4.693,0-8.533-3.84-8.533-8.533s3.84-8.533,8.533-8.533h8.533  C354.545,328.534,358.385,332.374,358.385,337.067z"
   id="path11" />
<path
   d="M358.385,396.799c0,4.693-3.84,8.533-8.533,8.533h-8.533c-4.693,0-8.533-3.84-8.533-8.533c0-4.693,3.84-8.533,8.533-8.533  h8.533C354.545,388.266,358.385,392.106,358.385,396.799z"
   id="path12" />
</svg>
