<?xml version="1.0" encoding="UTF-8" standalone="no"?>
<!-- Uploaded to: SVG Repo, www.svgrepo.com, Generator: SVG Repo Mixer Tools -->

<svg
   width="800px"
   height="800px"
   viewBox="0 0 24 24"
   fill="none"
   version="1.1"
   id="svg3"
   sodipodi:docname="side-stage-transitions.svg"
   inkscape:version="1.4.3 (0d15f75, 2025-12-25)"
   xmlns:inkscape="http://www.inkscape.org/namespaces/inkscape"
   xmlns:sodipodi="http://sodipodi.sourceforge.net/DTD/sodipodi-0.dtd"
   xmlns="http://www.w3.org/2000/svg"
   xmlns:svg="http://www.w3.org/2000/svg">
  <defs
     id="defs3" />
  <sodipodi:namedview
     id="namedview3"
     pagecolor="#ffffff"
     bordercolor="#000000"
     borderopacity="0.25"
     inkscape:showpageshadow="2"
     inkscape:pageopacity="0.0"
     inkscape:pagecheckerboard="0"
     inkscape:deskcolor="#d1d1d1"
     inkscape:zoom="1.01"
     inkscape:cx="399.50495"
     inkscape:cy="400"
     inkscape:window-width="1920"
     inkscape:window-height="1010"
     inkscape:window-x="-6"
     inkscape:window-y="-6"
     inkscape:window-maximized="1"
     inkscape:current-layer="svg3" />
  <path
     d="m 2,13.2 v -2.4 c 0,-1.65685 1.34315,-3 3,-3 h 2 c 1.65685,0 3,1.34315 3,3 v 2.4 c 0,1.6569 -1.34315,3 -3,3 H 5 c -1.65685,0 -3,-1.3431 -3,-3 z"
     stroke="#000000"
     stroke-width="1.5"
     id="path1"
     sodipodi:nodetypes="sssssssss" />
  <path
     d="m 18.25,7.8908911 h 2 c 1.65685,0 3,1.34315 3,2.9999999 v 2.4 c 0,1.6569 -1.34315,3 -3,3 h -2"
     stroke="#000000"
     stroke-width="1.5"
     id="path1-9"
     sodipodi:nodetypes="cssssc" />
  <path
     d="M10 12H18M18 12L15 9M18 12L15 15"
     stroke="#000000"
     stroke-width="1.5"
     stroke-linecap="round"
     stroke-linejoin="round"
     id="path3" />
</svg>
