<?xml version="1.0" encoding="UTF-8" standalone="no"?>
<!-- Uploaded to: SVG Repo, www.svgrepo.com, Generator: SVG Repo Mixer Tools -->

<svg
   fill="#000000"
   width="800px"
   height="800px"
   viewBox="0 0 1920 1920"
   version="1.1"
   id="svg1"
   sodipodi:docname="side-matrices.svg"
   inkscape:version="1.4.3 (0d15f75, 2025-12-25)"
   xmlns:inkscape="http://www.inkscape.org/namespaces/inkscape"
   xmlns:sodipodi="http://sodipodi.sourceforge.net/DTD/sodipodi-0.dtd"
   xmlns="http://www.w3.org/2000/svg"
   xmlns:svg="http://www.w3.org/2000/svg">
  <defs
     id="defs1" />
  <sodipodi:namedview
     id="namedview1"
     pagecolor="#ffffff"
     bordercolor="#000000"
     borderopacity="0.25"
     inkscape:showpageshadow="2"
     inkscape:pageopacity="0.0"
     inkscape:pagecheckerboard="0"
     inkscape:deskcolor="#d1d1d1"
     inkscape:zoom="1.01"
     inkscape:cx="400"
     inkscape:cy="400"
     inkscape:window-width="1920"
     inkscape:window-height="1010"
     inkscape:window-x="-6"
     inkscape:window-y="-6"
     inkscape:window-maximized="1"
     inkscape:current-layer="svg1" />
  <path
     d="M1800 1320v420c0 33-27 60-60 60h-420v-480h480Zm-600 0v480H720v-480h480Zm-600 0v480H180c-33 0-60-27-60-60v-420h480Zm1200-600v480h-480V720h480Zm-600 0v480H720V720h480Zm-600 0v480H120V720h480Zm1140-600c33 0 60 27 60 60v420h-480V120h420Zm-540 0v480H720V120h480Zm-600 0v480H120V180c0-33 27-60 60-60h420ZM1740 0H180C80.76 0 0 80.76 0 180v1560c0 99.24 80.76 180 180 180h1560c99.24 0 180-80.76 180-180V180c0-99.24-80.76-180-180-180Z"
     fill-rule="evenodd"
     id="path1"
     style="fill:#000000;fill-opacity:1" />
</svg>
