<?xml version="1.0" encoding="UTF-8" standalone="no"?>
<!-- Uploaded to: SVG Repo, www.svgrepo.com, Generator: SVG Repo Mixer Tools -->

<svg
   fill="#000000"
   version="1.1"
   id="Capa_1"
   width="800px"
   height="800px"
   viewBox="0 0 66.667 66.667"
   xml:space="preserve"
   sodipodi:docname="side-sequences.svg"
   inkscape:version="1.4.3 (0d15f75, 2025-12-25)"
   xmlns:inkscape="http://www.inkscape.org/namespaces/inkscape"
   xmlns:sodipodi="http://sodipodi.sourceforge.net/DTD/sodipodi-0.dtd"
   xmlns="http://www.w3.org/2000/svg"
   xmlns:svg="http://www.w3.org/2000/svg"><defs
   id="defs4" /><sodipodi:namedview
   id="namedview4"
   pagecolor="#ffffff"
   bordercolor="#000000"
   borderopacity="0.25"
   inkscape:showpageshadow="2"
   inkscape:pageopacity="0.0"
   inkscape:pagecheckerboard="0"
   inkscape:deskcolor="#d1d1d1"
   inkscape:zoom="1.01"
   inkscape:cx="379.70298"
   inkscape:cy="529.70298"
   inkscape:window-width="1920"
   inkscape:window-height="1010"
   inkscape:window-x="-6"
   inkscape:window-y="-6"
   inkscape:window-maximized="1"
   inkscape:current-layer="g3" />
<g
   id="g4">
	<g
   id="g3">
		<path
   d="m 23.307621,23.972964 c 1.14869,0 2.083343,-0.934653 2.083343,-2.083343 0,-1.14869 -0.934653,-2.083344 -2.083343,-2.083344 -1.14869,0 -2.083344,0.934654 -2.083344,2.083344 0,1.14869 0.934654,2.083343 2.083344,2.083343 z"
   id="path1"
   style="stroke-width:0.438599"
   sodipodi:nodetypes="sssss" /><path
   d="m 51.417968,46.827516 c 1.14869,0 2.083343,-0.934652 2.083343,-2.083343 0,-1.14869 -0.934653,-2.083342 -2.083343,-2.083342 -1.148691,0 -2.083343,0.934654 -2.083343,2.083342 0,1.148691 0.934655,2.083343 2.083343,2.083343 z"
   id="path1-2"
   style="stroke-width:0.438599"
   sodipodi:nodetypes="sssss" />
		
		<path
   id="path3"
   d="M 22.777344,10.519531 C 16.61115,10.646319 11.247837,16.661457 11.975,22.818646 c 0.07379,1.086448 0.322855,2.159035 0.722266,3.171588 0.660426,1.495205 1.36461,2.62577 2.987687,4.398102 3.949723,3.656146 10.694557,3.978679 14.787703,0.385102 1.71069,1.476608 3.532453,2.863378 5.279813,4.314179 l 5.474093,4.44168 c -2.886433,5.291839 -0.593833,12.747326 4.88055,15.356824 4.652142,2.453324 11.023266,1.242433 14.196501,-3.033391 2.993875,-3.725844 3.367155,-9.421015 0.58512,-13.370731 -0.27382,-0.417624 -0.579127,-0.813531 -0.908264,-1.18903 -1.194913,-1.217619 -2.24397,-2.026842 -3.759766,-2.865235 -3.849132,-1.847909 -8.753107,-1.270237 -12.041015,1.464844 l -10.734376,-8.6875 C 36.303131,22.043873 34.230893,14.757577 28.97565,12.006343 27.105203,10.941988 24.93062,10.411657 22.777344,10.519531 Z m 0.591797,4.640625 c 3.991565,-0.104402 7.559593,4.091593 6.582523,8.059109 -0.635432,3.472301 -4.388844,6.169276 -7.929605,5.314815 -3.380939,-0.650027 -6.015512,-4.170317 -5.356463,-7.615339 0.446982,-3.10012 3.337672,-5.796498 6.55396,-5.749973 0.05003,0.0027 0.09961,-0.0094 0.149585,-0.0086 z m 28.048828,22.833985 c 4.022284,-0.106812 7.564311,4.147683 6.570312,8.115234 -0.702325,3.52581 -4.587908,6.212784 -8.148437,5.207031 -3.22618,-0.727658 -5.767198,-4.156527 -5.146585,-7.508682 0.453191,-3.238708 3.444096,-5.906218 6.72471,-5.813583 z"
   sodipodi:nodetypes="cccccccccccccccccccccccccccc" />
	</g>
</g>
</svg>
