<?xml version="1.0" encoding="UTF-8" standalone="no"?>
<!-- Uploaded to: SVG Repo, www.svgrepo.com, Generator: SVG Repo Mixer Tools -->

<svg
   width="800px"
   height="800px"
   viewBox="0 0 24 24"
   fill="none"
   version="1.1"
   id="svg2"
   sodipodi:docname="side-stages.svg"
   inkscape:version="1.4.3 (0d15f75, 2025-12-25)"
   xmlns:inkscape="http://www.inkscape.org/namespaces/inkscape"
   xmlns:sodipodi="http://sodipodi.sourceforge.net/DTD/sodipodi-0.dtd"
   xmlns="http://www.w3.org/2000/svg"
   xmlns:svg="http://www.w3.org/2000/svg">
  <defs
     id="defs2" />
  <sodipodi:namedview
     id="namedview2"
     pagecolor="#ffffff"
     bordercolor="#000000"
     borderopacity="0.25"
     inkscape:showpageshadow="2"
     inkscape:pageopacity="0.0"
     inkscape:pagecheckerboard="0"
     inkscape:deskcolor="#d1d1d1"
     inkscape:zoom="0.2525"
     inkscape:cx="768.31683"
     inkscape:cy="245.54455"
     inkscape:window-width="1920"
     inkscape:window-height="1010"
     inkscape:window-x="-6"
     inkscape:window-y="-6"
     inkscape:window-maximized="1"
     inkscape:current-layer="svg2" />
  <path
     d="m 2.0459558,3.9962032 c 0,-0.93188 0,-1.09782 0.15224,-1.46537 0.20299,-0.49005 0.59234,-0.8794 1.08239,-1.08239 0.36755,-0.15224 0.83349,-0.15224 1.76537,-0.15224 h 1.2 c 0.9319,0 1.3978,0 1.7654,0.15224 0.49,0.20299 0.8794,0.59234 1.0823996,1.08239 0.1522,0.36755 0.1522,0.53349 0.1522,1.46537 0,0.93188 0,1.09782 -0.1522,1.46537 -0.2029996,0.49005 -0.5923996,0.8794 -1.0823996,1.08239 -0.3676,0.15224 -0.8335,0.15224 -1.7654,0.15224 h -1.2 c -0.93188,0 -1.39782,0 -1.76537,-0.15224 -0.49005,-0.20299 -0.8794,-0.59234 -1.08239,-1.08239 -0.15224,-0.36755 -0.15224,-0.53349 -0.15224,-1.46537 z"
     stroke="#000000"
     stroke-width="2"
     stroke-linecap="round"
     id="path1-8"
     sodipodi:nodetypes="sccssccsccssccs"
     style="stroke-width:1.14;stroke-dasharray:none" />
  <path
     d="m 2.0459558,12 c 0,-0.93188 0,-1.09782 0.15224,-1.46537 0.20299,-0.49005 0.59234,-0.8794 1.08239,-1.08239 0.36755,-0.1522398 0.83349,-0.1522398 1.76537,-0.1522398 h 1.1999996 c 0.9319,0 1.3978,0 1.7654,0.1522398 0.49,0.20299 0.8794,0.59234 1.0824,1.08239 0.1522,0.36755 0.1522,0.53349 0.1522,1.46537 0,0.93188 0,1.09782 -0.1522,1.46537 -0.203,0.49005 -0.5924,0.8794 -1.0824,1.08239 C 7.6437554,14.7 7.1778554,14.7 6.2459554,14.7 H 5.0459558 c -0.93188,0 -1.39782,0 -1.76537,-0.15224 -0.49005,-0.20299 -0.8794,-0.59234 -1.08239,-1.08239 C 2.0459558,13.09782 2.0459558,12.93188 2.0459558,12 Z"
     stroke="#000000"
     stroke-width="2"
     stroke-linecap="round"
     id="path1-8-7"
     sodipodi:nodetypes="sccssccsccssccs"
     style="stroke-width:1.14;stroke-dasharray:none" />
  <path
     d="m 2.0459558,20.003797 c 0,-0.93188 0,-1.09782 0.15224,-1.46537 0.20299,-0.49005 0.59234,-0.8794 1.08239,-1.08239 0.36755,-0.15224 0.83349,-0.15224 1.7653696,-0.15224 h 1.2 c 0.9319,0 1.3978,0 1.7654,0.15224 0.49,0.20299 0.8794,0.59234 1.0824,1.08239 0.1522,0.36755 0.1522,0.53349 0.1522,1.46537 0,0.93188 0,1.09782 -0.1522,1.46537 -0.203,0.49005 -0.5924,0.8794 -1.0824,1.08239 -0.3676,0.15224 -0.8335,0.15224 -1.7654,0.15224 h -1.2 c -0.9318796,0 -1.3978196,0 -1.7653696,-0.15224 -0.49005,-0.20299 -0.8794,-0.59234 -1.08239,-1.08239 -0.15224,-0.36755 -0.15224,-0.53349 -0.15224,-1.46537 z"
     stroke="#000000"
     stroke-width="2"
     stroke-linecap="round"
     id="path1-8-7-1"
     sodipodi:nodetypes="sccssccsccssccs"
     style="stroke-width:1.14;stroke-dasharray:none" />
  <path
     d="m 14.754044,3.9962032 c 0,-0.93188 0,-1.09782 0.15224,-1.46537 0.20299,-0.49005 0.59234,-0.8794 1.08239,-1.08239 0.36755,-0.15224 0.83349,-0.15224 1.76537,-0.15224 h 1.2 c 0.9319,0 1.3978,0 1.7654,0.15224 0.49,0.20299 0.8794,0.59234 1.0824,1.08239 0.1522,0.36755 0.1522,0.53349 0.1522,1.46537 0,0.93188 0,1.09782 -0.1522,1.46537 -0.203,0.49005 -0.5924,0.8794 -1.0824,1.08239 -0.3676,0.15224 -0.8335,0.15224 -1.7654,0.15224 h -1.2 c -0.93188,0 -1.39782,0 -1.76537,-0.15224 -0.49005,-0.20299 -0.8794,-0.59234 -1.08239,-1.08239 -0.15224,-0.36755 -0.15224,-0.53349 -0.15224,-1.46537 z"
     stroke="#000000"
     stroke-width="2"
     stroke-linecap="round"
     id="path1-8-76"
     sodipodi:nodetypes="sccssccsccssccs"
     style="stroke-width:1.14;stroke-dasharray:none" />
  <path
     d="m 14.754044,12 c 0,-0.93188 0,-1.09782 0.15224,-1.46537 0.20299,-0.49005 0.59234,-0.8794 1.08239,-1.08239 0.36755,-0.1522398 0.83349,-0.1522398 1.76537,-0.1522398 h 1.2 c 0.9319,0 1.3978,0 1.7654,0.1522398 0.49,0.20299 0.8794,0.59234 1.0824,1.08239 0.1522,0.36755 0.1522,0.53349 0.1522,1.46537 0,0.93188 0,1.09782 -0.1522,1.46537 -0.203,0.49005 -0.5924,0.8794 -1.0824,1.08239 C 20.351844,14.7 19.885944,14.7 18.954044,14.7 h -1.2 c -0.93188,0 -1.39782,0 -1.76537,-0.15224 -0.49005,-0.20299 -0.8794,-0.59234 -1.08239,-1.08239 C 14.754044,13.09782 14.754044,12.93188 14.754044,12 Z"
     stroke="#000000"
     stroke-width="2"
     stroke-linecap="round"
     id="path1-8-7-14"
     sodipodi:nodetypes="sccssccsccssccs"
     style="stroke-width:1.14;stroke-dasharray:none" />
  <path
     d="m 14.754044,20.003797 c 0,-0.93188 0,-1.09782 0.15224,-1.46537 0.20299,-0.49005 0.59234,-0.8794 1.08239,-1.08239 0.36755,-0.15224 0.83349,-0.15224 1.76537,-0.15224 h 1.2 c 0.9319,0 1.3978,0 1.7654,0.15224 0.49,0.20299 0.8794,0.59234 1.0824,1.08239 0.1522,0.36755 0.1522,0.53349 0.1522,1.46537 0,0.93188 0,1.09782 -0.1522,1.46537 -0.203,0.49005 -0.5924,0.8794 -1.0824,1.08239 -0.3676,0.15224 -0.8335,0.15224 -1.7654,0.15224 h -1.2 c -0.93188,0 -1.39782,0 -1.76537,-0.15224 -0.49005,-0.20299 -0.8794,-0.59234 -1.08239,-1.08239 -0.15224,-0.36755 -0.15224,-0.53349 -0.15224,-1.46537 z"
     stroke="#000000"
     stroke-width="2"
     stroke-linecap="round"
     id="path1-8-7-1-2"
     sodipodi:nodetypes="sccssccsccssccs"
     style="stroke-width:1.14;stroke-dasharray:none" />
</svg>
