<?xml version="1.0" encoding="UTF-8" standalone="no"?>
<svg
   xmlns:dc="http://purl.org/dc/elements/1.1/"
   xmlns:cc="http://creativecommons.org/ns#"
   xmlns:rdf="http://www.w3.org/1999/02/22-rdf-syntax-ns#"
   xmlns:svg="http://www.w3.org/2000/svg"
   xmlns="http://www.w3.org/2000/svg"
   xmlns:sodipodi="http://sodipodi.sourceforge.net/DTD/sodipodi-0.dtd"
   xmlns:inkscape="http://www.inkscape.org/namespaces/inkscape"
   width="250mm"
   height="250mm"
   viewBox="0 0 250 250"
   version="1.1"
   id="svg836"
   inkscape:version="1.0.2-2 (e86c870879, 2021-01-15)"
   sodipodi:docname="50.svg">
  <defs
     id="defs830" />
  <sodipodi:namedview
     id="base"
     pagecolor="#ffffff"
     bordercolor="#666666"
     borderopacity="1.0"
     inkscape:pageopacity="0.0"
     inkscape:pageshadow="2"
     inkscape:zoom="0.48906927"
     inkscape:cx="394.05093"
     inkscape:cy="444.43633"
     inkscape:document-units="mm"
     inkscape:current-layer="layer1"
     inkscape:document-rotation="0"
     showgrid="false"
     inkscape:window-width="1920"
     inkscape:window-height="1001"
     inkscape:window-x="-9"
     inkscape:window-y="-9"
     inkscape:window-maximized="1" />
  <metadata
     id="metadata833">
    <rdf:RDF>
      <cc:Work
         rdf:about="">
        <dc:format>image/svg+xml</dc:format>
        <dc:type
           rdf:resource="http://purl.org/dc/dcmitype/StillImage" />
        <dc:title />
      </cc:Work>
    </rdf:RDF>
  </metadata>
  <g
     inkscape:label="Ebene 1"
     inkscape:groupmode="layer"
     id="layer1"
     transform="translate(110.36905,-39.309509)">
    <circle
       style="fill:#000000;fill-opacity:1;stroke:none;stroke-width:0.483965;stroke-linecap:round;stroke-linejoin:round"
       id="path1399"
       cx="14.630951"
       cy="164.30951"
       r="125" />
    <g
       aria-label="50"
       id="text1403"
       style="font-size:208.669px;line-height:1.25;font-family:'DIN 1451 Mittelschrift';-inkscape-font-specification:'DIN 1451 Mittelschrift';fill:#ffffff;fill-opacity:1;stroke-width:0.365632">
      <path
         d="M -73.418038,172.80973 V 92.521067 H 5.6479526 V 113.8159 H -53.345873 v 33.52154 q 10.188916,-8.15114 23.740175,-8.15114 8.456801,0 15.385264,3.26046 7.030352,3.26045 11.1059185,7.64168 6.1133498,6.6228 8.8643572,14.46827 2.8528966,7.74357 2.8528966,26.18551 0,14.97771 -2.2415616,22.31373 -2.1396724,7.23413 -6.9284631,13.34748 -4.5850123,5.80768 -12.8380346,10.80025 -8.253022,4.99257 -19.358941,4.99257 -14.366372,0 -27.713852,-8.86436 -13.347481,-8.86436 -15.690932,-29.64975 h 21.294836 q 3.769899,17.32116 21.294835,17.32116 15.589042,0 18.23816,-10.69836 2.649118,-10.69836 2.649118,-21.19295 0,-12.32858 -4.177456,-20.47972 -4.177455,-8.15113 -17.321157,-8.15113 -12.328589,0 -19.155163,12.32859 z"
         style="font-size:208.669px;fill:#ffffff;fill-opacity:1;stroke-width:0.365632"
         id="path833" />
      <path
         d="m 87.261176,198.28202 v -63.06939 q 0,-10.69837 -5.807682,-16.70983 -5.705794,-6.01146 -15.079597,-6.01146 -9.475692,0 -15.181485,6.01146 -5.705793,6.01146 -5.705793,16.70983 v 63.06939 q 0,10.80025 5.705793,16.81171 5.705793,5.90957 15.181485,5.90957 9.373803,0 15.079597,-5.90957 5.807682,-6.01146 5.807682,-16.81171 z m -63.069392,1.22267 v -65.51473 q 0,-20.47973 12.838034,-31.58564 12.838035,-11.207812 29.344079,-11.207812 16.404156,0 29.24219,11.207812 12.939923,11.10591 12.939923,31.58564 v 65.51473 q 0,20.47972 -12.939923,31.58564 -12.838034,11.10592 -29.24219,11.10592 -16.506044,0 -29.344079,-11.10592 -12.838034,-11.10592 -12.838034,-31.58564 z"
         style="font-size:208.669px;fill:#ffffff;fill-opacity:1;stroke-width:0.365632"
         id="path835" />
    </g>
  </g>
</svg>
