<?xml version="1.0" encoding="UTF-8" standalone="no"?>
<svg
   xmlns:dc="http://purl.org/dc/elements/1.1/"
   xmlns:cc="http://creativecommons.org/ns#"
   xmlns:rdf="http://www.w3.org/1999/02/22-rdf-syntax-ns#"
   xmlns:svg="http://www.w3.org/2000/svg"
   xmlns="http://www.w3.org/2000/svg"
   xmlns:sodipodi="http://sodipodi.sourceforge.net/DTD/sodipodi-0.dtd"
   xmlns:inkscape="http://www.inkscape.org/namespaces/inkscape"
   width="250mm"
   height="250mm"
   viewBox="0 0 250 250"
   version="1.1"
   id="svg836"
   inkscape:version="1.0.2-2 (e86c870879, 2021-01-15)"
   sodipodi:docname="40.svg">
  <defs
     id="defs830" />
  <sodipodi:namedview
     id="base"
     pagecolor="#ffffff"
     bordercolor="#666666"
     borderopacity="1.0"
     inkscape:pageopacity="0.0"
     inkscape:pageshadow="2"
     inkscape:zoom="0.47116143"
     inkscape:cx="257.15517"
     inkscape:cy="444.43633"
     inkscape:document-units="mm"
     inkscape:current-layer="layer1"
     inkscape:document-rotation="0"
     showgrid="false"
     inkscape:window-width="1920"
     inkscape:window-height="1001"
     inkscape:window-x="-9"
     inkscape:window-y="-9"
     inkscape:window-maximized="1" />
  <metadata
     id="metadata833">
    <rdf:RDF>
      <cc:Work
         rdf:about="">
        <dc:format>image/svg+xml</dc:format>
        <dc:type
           rdf:resource="http://purl.org/dc/dcmitype/StillImage" />
        <dc:title />
      </cc:Work>
    </rdf:RDF>
  </metadata>
  <g
     inkscape:label="Ebene 1"
     inkscape:groupmode="layer"
     id="layer1"
     transform="translate(110.36905,-39.309509)">
    <circle
       style="fill:#000000;fill-opacity:1;stroke:none;stroke-width:0.483965;stroke-linecap:round;stroke-linejoin:round"
       id="path1399"
       cx="14.630951"
       cy="164.30951"
       r="125" />
    <g
       aria-label="4 0"
       id="text1403"
       style="font-size:208.669px;line-height:1.25;font-family:'DIN 1451 Mittelschrift';-inkscape-font-specification:'DIN 1451 Mittelschrift';fill:#ffffff;fill-opacity:1;stroke-width:0.365632">
      <path
         d="M -81.365393,218.96552 V 198.89335 L -31.643481,92.521067 H -7.9033062 L -58.134664,198.89335 h 38.717882 V 156.09991 H 1.8780535 v 42.79344 H 13.799086 v 20.07217 H 1.8780535 v 22.00806 H -19.416782 v -22.00806 z"
         style="font-size:208.669px;fill:#ffffff;fill-opacity:1;stroke-width:0.365632"
         id="path834" />
      <path
         d="m 91.72602,198.28202 v -63.06939 q 0,-10.69837 -5.807683,-16.70983 -5.705793,-6.01146 -15.079596,-6.01146 -9.475692,0 -15.181485,6.01146 -5.705793,6.01146 -5.705793,16.70983 v 63.06939 q 0,10.80025 5.705793,16.81171 5.705793,5.90957 15.181485,5.90957 9.373803,0 15.079596,-5.90957 5.807683,-6.01146 5.807683,-16.81171 z m -63.069392,1.22267 v -65.51473 q 0,-20.47973 12.838034,-31.58564 12.838035,-11.207812 29.344079,-11.207812 16.404155,0 29.242189,11.207812 12.93992,11.10591 12.93992,31.58564 v 65.51473 q 0,20.47972 -12.93992,31.58564 -12.838034,11.10592 -29.242189,11.10592 -16.506044,0 -29.344079,-11.10592 -12.838034,-11.10592 -12.838034,-31.58564 z"
         style="font-size:208.669px;fill:#ffffff;fill-opacity:1;stroke-width:0.365632"
         id="path836" />
    </g>
  </g>
</svg>
