<?xml version="1.0" encoding="UTF-8" standalone="no"?>
<!-- Created with Inkscape (http://www.inkscape.org/) -->
<!DOCTYPE svg PUBLIC "-//W3C//DTD SVG 1.1//EN" "http://www.w3.org/Graphics/SVG/1.1/DTD/svg11.dtd">
<svg xmlns:svg="http://www.w3.org/2000/svg" xmlns="http://www.w3.org/2000/svg" version="1.1" width="480" height="480" id="svg4323">
  <defs id="defs4327"/>
  <g transform="translate(2.999975,3.0000033)" id="g4979">
    <path d="m 401.48226,94.085369 a 26.11017,26.11017 0 1 1 -0.007,-0.05453" transform="matrix(9.0759288,0,0,9.0759318,-3171.7804,-647.09584)" id="path4277" style="fill:black;fill-opacity:1;fill-rule:nonzero;stroke:none"/>
    <path d="m 151.7344,45.484374 106.84375,90.499996 0,57.75 -106.78125,-89.99999 -105.906247,89.18749 0,-58.125 L 151.7344,45.484374 z m 23.375,147.281246 0,85.3125 117.875,0 0,46.03125 -117.875,0 0,104.40625 -46.03125,0 0,-235.75 46.03125,0 z m 183.5625,25.71875 69.4375,82.28125 -70.21875,82.90625 -57.84375,0 69.8125,-82.84375 -69.34375,-82.34375 58.15625,0 z" id="path4367" style="fill:#00C035;fill-opacity:1;fill-rule:nonzero;stroke:none"/>
  </g>
</svg>