<?xml version="1.0" encoding="UTF-8" standalone="no"?>
<!-- Created with Pixodesk SVG (https://pixodesk.com) -->
<svg xmlns="http://www.w3.org/2000/svg" viewBox="0 0 105.83332 105.83332" text-rendering="geometricPrecision" shape-rendering="geometricPrecision">
  <path id="path20" fill="#ffffff" d="M43.9102,67.7051C40.7202,67.7181,37.9819,69.1763,36.373,71.3477C34.7642,73.519,34.0985,76.153,33.7656,78.8828C33.0999,84.3425,33.8363,90.5096,33.9707,94.7227L39.2598,94.5547C39.1128,89.948,38.4746,83.9925,39.0195,79.5234C39.292,77.2889,39.8778,75.5064,40.625,74.498C41.3722,73.4896,42.0963,73.0036,43.9316,72.9961C46.2415,72.9867,47.563,73.3059,48.1367,73.6426C48.7104,73.9793,48.9925,74.3087,49.3203,75.7188C49.9759,78.5389,49.687,84.8263,49.6816,94.8594L54.9727,94.8633C54.978,84.9746,55.5126,78.9864,54.4746,74.5215C53.9556,72.289,52.761,70.2225,50.8145,69.0801C48.8679,67.9377,46.6256,67.694,43.9102,67.7051L43.9102,67.7051z" style="pointer-events:none"/>
  <path id="path19" fill="#ffffff" fill-rule="evenodd" d="M36.7223,98.0232L26.2436,88.1922L26.0277,81.4223L36.5064,91.2533L46.3374,80.7746L46.5533,87.5445L36.7223,98.0232z" style="pointer-events:none"/>
</svg>