<?xml version="1.0" encoding="UTF-8" standalone="no"?>
<!-- Created with Inkscape (http://www.inkscape.org/) -->

<svg
   width="400"
   height="400"
   viewBox="0 0 105.83332 105.83332"
   version="1.1"
   id="svg1"
   inkscape:version="1.4.3 (0d15f75, 2025-12-25)"
   xml:space="preserve"
   sodipodi:docname="pizza.svg"
   xmlns:inkscape="http://www.inkscape.org/namespaces/inkscape"
   xmlns:sodipodi="http://sodipodi.sourceforge.net/DTD/sodipodi-0.dtd"
   xmlns="http://www.w3.org/2000/svg"
   xmlns:svg="http://www.w3.org/2000/svg"><sodipodi:namedview
     id="namedview1"
     pagecolor="#ffffff"
     bordercolor="#000000"
     borderopacity="0.25"
     inkscape:showpageshadow="2"
     inkscape:pageopacity="0.0"
     inkscape:pagecheckerboard="0"
     inkscape:deskcolor="#d1d1d1"
     inkscape:document-units="px"
     showgrid="true"
     inkscape:zoom="1.4283557"
     inkscape:cx="78.761894"
     inkscape:cy="241.53647"
     inkscape:window-width="1920"
     inkscape:window-height="1010"
     inkscape:window-x="-6"
     inkscape:window-y="-6"
     inkscape:window-maximized="1"
     inkscape:current-layer="layer1"><inkscape:grid
       id="grid1"
       units="px"
       originx="0"
       originy="0"
       spacingx="2.6458333"
       spacingy="2.6458333"
       empcolor="#0099e5"
       empopacity="0.30196078"
       color="#0099e5"
       opacity="0.14901961"
       empspacing="5"
       enabled="true"
       visible="true" /></sodipodi:namedview><defs
     id="defs1" /><g
     inkscape:label="Layer 1"
     inkscape:groupmode="layer"
     id="layer1"><path
       id="path1"
       style="fill:#ffffff;stroke:#000000;stroke-width:0.264583"
       d="M 105.83332,52.91666 A 52.91666,52.91666 0 0 1 52.91666,105.83332 52.91666,52.91666 0 0 1 0,52.91666 52.91666,52.91666 0 0 1 52.91666,0 52.91666,52.91666 0 0 1 105.83332,52.91666 Z" /><g
       id="g11"><path
         style="fill:#0266b1;fill-opacity:1;stroke:none;stroke-width:0.251354;stroke-dasharray:none;stroke-opacity:1"
         d="M 52.91666,53.477866 17.651634,88.742892 A 50.270828,50.270828 0 0 0 52.91666,103.18749 50.270828,50.270828 0 0 0 88.182203,88.742892 Z"
         id="path10" /><g
         id="path5-1-8"
         style="opacity:1"><path
           style="baseline-shift:baseline;display:inline;overflow:visible;vector-effect:none;fill:#ffffff;enable-background:accumulate;stop-color:#000000;stop-opacity:1"
           d="m 43.910156,67.705078 c -3.189944,0.01299 -5.928239,1.471262 -7.537109,3.642578 -1.608871,2.171317 -2.274565,4.80531 -2.607422,7.535156 -0.665714,5.459693 0.07071,11.626837 0.205078,15.839844 l 5.289063,-0.167969 c -0.146925,-4.606668 -0.785155,-10.562223 -0.240235,-15.03125 0.27246,-2.234513 0.858281,-4.016992 1.605469,-5.02539 0.747188,-1.008398 1.47128,-1.494479 3.306641,-1.501953 2.309817,-0.0094 3.631362,0.30977 4.205078,0.646484 0.573715,0.336714 0.855795,0.666083 1.183593,2.076172 0.655598,2.820179 0.366682,9.107595 0.361329,19.140625 l 5.291015,0.0039 c 0.0053,-9.888669 0.539895,-15.876891 -0.498047,-20.341797 -0.51897,-2.232452 -1.71364,-4.298994 -3.660156,-5.441406 -1.946515,-1.142412 -4.188808,-1.386058 -6.904297,-1.375 z"
           id="path20" /><g
           id="g19"><path
             style="baseline-shift:baseline;display:inline;overflow:visible;vector-effect:none;fill:#ffffff;fill-rule:evenodd;enable-background:accumulate;stop-color:#000000;stop-opacity:1"
             d="m 36.722314,98.023172 -10.478719,-9.830965 -0.215918,-6.769895 10.478719,9.830966 9.830966,-10.478719 0.215918,6.769895 z"
             id="path19" /></g></g></g><circle
       id="path2"
       style="fill:#ffffff;stroke:#000000;stroke-width:0.264583"
       cx="48.987206"
       cy="35.62706"
       r="0.0348933" /><circle
       id="path3"
       style="fill:#ffffff;stroke:#000000;stroke-width:0.264583"
       cx="66.27681"
       cy="36.412949"
       r="0.0348933" /><path
       style="fill:#0266b1;fill-opacity:1;stroke:none;stroke-width:0.264583;stroke-dasharray:none;stroke-opacity:1"
       d="M -52.916665,82.020831 -2.6458333,31.749999"
       id="path4" /><g
       id="g10"><path
         style="fill:#0266b1;fill-opacity:1;stroke:none;stroke-width:0.251354;stroke-dasharray:none;stroke-opacity:1"
         d="M 88.742892,17.651634 53.477866,52.91666 88.742892,88.182203 A 50.270828,50.270828 0 0 0 103.18749,52.91666 50.270828,50.270828 0 0 0 88.742892,17.651634 Z"
         id="path8" /><g
         id="path5"
         style="opacity:1"><path
           style="baseline-shift:baseline;display:inline;overflow:visible;vector-effect:none;fill:#ffffff;enable-background:accumulate;stop-color:#000000;stop-opacity:1"
           d="m 86.652344,49.507812 c -9.790211,-0.338863 -20.239019,-0.288785 -28.03125,6.003907 -5.07228,4.096169 -7.43288,9.377551 -8.310547,15.726562 -0.877668,6.349012 -0.530676,13.903393 -0.525391,23.808594 l 5.292969,-0.002 c -0.0053,-10.016498 -0.294953,-17.515052 0.474609,-23.082031 0.769562,-5.56698 2.340428,-9.063585 6.392578,-12.335938 7.859219,-6.346788 21.532884,-4.502539 34.185547,-4.576172 l -0.03125,-5.292969 c -2.994221,0.01742 -6.183862,-0.137045 -9.447265,-0.25 z"
           id="path11" /><g
           id="g2"><path
             style="baseline-shift:baseline;display:inline;overflow:visible;vector-effect:none;fill:#ffffff;fill-rule:evenodd;enable-background:accumulate;stop-color:#000000;stop-opacity:1"
             d="M 99.5021,52.384644 89.401392,62.603603 82.628169,62.64302 92.728878,52.42406 82.509919,42.323352 l 6.773222,-0.03942 z"
             id="path7" /></g></g></g><g
       id="g12"><path
         style="fill:#0266b1;fill-opacity:1;stroke:none;stroke-width:0.251354;stroke-dasharray:none;stroke-opacity:1"
         d="M 17.089911,17.65215 A 50.270828,50.270828 0 0 0 2.645833,52.91666 50.270828,50.270828 0 0 0 17.089911,88.181686 L 52.354937,52.91666 Z"
         id="path9" /><g
         id="path5-1"
         style="opacity:1"><path
           style="baseline-shift:baseline;display:inline;overflow:visible;vector-effect:none;fill:#ffffff;enable-background:accumulate;stop-color:#000000;stop-opacity:1"
           d="m 18.107422,49.322266 c -3.263404,0.112954 -6.454997,0.269378 -9.4492189,0.251953 l -0.029297,5.291015 c 12.6526627,0.07363 26.3263287,-1.770616 34.1855467,4.576172 4.05215,3.272353 5.623016,6.768958 6.392578,12.335938 0.769562,5.566979 0.479954,13.065533 0.47461,23.082031 l 5.291015,0.0039 C 54.977942,84.95808 55.324933,77.401746 54.447266,71.052734 53.569598,64.703723 51.210952,59.422341 46.138672,55.326172 38.34644,49.03348 27.897632,48.983402 18.107422,49.322266 Z"
           id="path18" /><g
           id="g17"><path
             style="baseline-shift:baseline;display:inline;overflow:visible;vector-effect:none;fill:#ffffff;fill-rule:evenodd;enable-background:accumulate;stop-color:#000000;stop-opacity:1"
             d="m 5.2570648,52.199408 10.2189592,-10.100709 6.773223,0.03942 -10.21896,10.100708 10.100709,10.21896 -6.773223,-0.03942 z"
             id="path17" /></g></g></g><g
       id="g13"><path
         style="fill:#0266b1;fill-opacity:1;stroke:none;stroke-width:0.251354;stroke-dasharray:none;stroke-opacity:1"
         d="M 52.91666,2.645833 A 50.270828,50.270828 0 0 0 17.65215,17.089911 L 52.91666,52.354937 88.181686,17.089911 A 50.270828,50.270828 0 0 0 52.91666,2.645833 Z"
         id="path1-5" /><g
         id="path5-5"
         style="opacity:1"><path
           style="baseline-shift:baseline;display:inline;overflow:visible;vector-effect:none;fill:#ffffff;enable-background:accumulate;stop-color:#000000;stop-opacity:1"
           d="m 50.3125,13.494141 -0.337891,81.541015 5.291016,0.02148 0.339844,-81.541016 z"
           id="path16" /><g
           id="g15"><path
             style="baseline-shift:baseline;display:inline;overflow:visible;vector-effect:none;fill:#ffffff;fill-rule:evenodd;enable-background:accumulate;stop-color:#000000;stop-opacity:1"
             d="m 52.972876,10.118094 10.117756,10.20208 -0.02811,6.773279 -10.117756,-10.202081 -10.20208,10.117757 0.02811,-6.773279 z"
             id="path15" /></g></g></g></g></svg>
