<?xml version="1.0" encoding="UTF-8" standalone="no"?>
<!-- Created with Pixodesk SVG (https://pixodesk.com) -->
<svg xmlns="http://www.w3.org/2000/svg" viewBox="0 0 105.83332 105.83332" text-rendering="geometricPrecision" shape-rendering="geometricPrecision">
  <path id="path18" fill="#ffffff" d="M18.1074,49.3223C14.844,49.4352,11.6524,49.5916,8.6582,49.5742L8.6289,54.8652C21.2816,54.9389,34.9552,53.0946,42.8145,59.4414C46.8666,62.7138,48.4375,66.2104,49.207,71.7773C49.9766,77.3443,49.687,84.8429,49.6816,94.8594L54.9727,94.8633C54.9779,84.9581,55.3249,77.4017,54.4473,71.0527C53.5696,64.7037,51.211,59.4223,46.1387,55.3262C38.3464,49.0335,27.8976,48.9834,18.1074,49.3223z"/>
  <path id="path17" fill="#ffffff" fill-rule="evenodd" d="M5.2571,52.1994L15.476,42.0987L22.2492,42.1381L12.0303,52.2388L22.131,62.4578L15.3578,62.4184L5.2571,52.1994z"/>
</svg>