<?xml version="1.0" encoding="UTF-8" standalone="no"?>
<!-- Created with Pixodesk SVG (https://pixodesk.com) -->
<svg xmlns="http://www.w3.org/2000/svg" viewBox="0 0 105.83332 105.83332" text-rendering="geometricPrecision" shape-rendering="geometricPrecision">
  <path id="path11" fill="#ffffff" d="M86.6523,49.5078C76.8621,49.1689,66.4133,49.219,58.6211,55.5117C53.5488,59.6079,51.1882,64.8893,50.3105,71.2383C49.4329,77.5873,49.7799,85.1417,49.7852,95.0469L55.0781,95.0449C55.0728,85.0284,54.7832,77.5298,55.5527,71.9628C56.3223,66.3959,57.8932,62.8993,61.9453,59.6269C69.8045,53.2801,83.4782,55.1244,96.1309,55.0507L96.0996,49.7578C93.1054,49.7752,89.9157,49.6207,86.6523,49.5078L86.6523,49.5078z"/>
  <path id="path7" fill="#ffffff" fill-rule="evenodd" d="M99.5021,52.3846L89.4014,62.6036L82.6282,62.643L92.7289,52.4241L82.5099,42.3234L89.2831,42.2839L99.5021,52.3846z"/>
</svg>