<?xml version="1.0" encoding="UTF-8" standalone="no"?>
<!-- Created with Pixodesk SVG (https://pixodesk.com) -->
<svg xmlns="http://www.w3.org/2000/svg" viewBox="0 0 105.83332 105.83332" text-rendering="geometricPrecision" shape-rendering="geometricPrecision">
  <path id="path1" fill="#ffffff" stroke="#000000" stroke-width="0.2646" d="M105.8333,52.9167C105.8333,82.1417,82.1417,105.8333,52.9167,105.8333C23.6916,105.8333,0,82.1417,0,52.9167C0,23.6916,23.6916,0,52.9167,0C82.1417,0,105.8333,23.6916,105.8333,52.9167z"/>
  <path id="path10" fill="#0266b1" stroke="none" d="M52.9167,53.4779L17.6516,88.7429C27.0554,97.9994,39.7215,103.1874,52.9167,103.1875C66.112,103.1876,78.7783,97.9995,88.1822,88.7429L52.9167,53.4779z"/>
  <ellipse id="path2" fill="#ffffff" stroke="#000000" stroke-width="0.2646" cx="48.9872" cy="35.6271" rx="0.0349" ry="0.0349"/>
  <ellipse id="path3" fill="#ffffff" stroke="#000000" stroke-width="0.2646" cx="66.2768" cy="36.4129" rx="0.0349" ry="0.0349"/>
  <path id="path4" fill="#0266b1" stroke="none" d="M-52.9167,82.0208L-2.6458,31.75"/>
  <path id="path8" fill="#0266b1" stroke="none" d="M88.7429,17.6516L53.4779,52.9167L88.7429,88.1822C97.9995,78.7783,103.1876,66.112,103.1875,52.9167C103.1874,39.7215,97.9994,27.0554,88.7429,17.6516z"/>
  <path id="path9" fill="#0266b1" stroke="none" d="M17.0899,17.6521C7.8337,27.0558,2.6459,39.7217,2.6458,52.9167C2.6458,66.1118,7.8336,78.7779,17.0899,88.1817L52.3549,52.9167L17.0899,17.6521z"/>
  <path id="path1-5" fill="#0266b1" stroke="none" d="M52.9167,2.6458C39.7217,2.6459,27.0558,7.8337,17.6521,17.0899L52.9167,52.3549L88.1817,17.0899C78.7779,7.8336,66.1118,2.6458,52.9167,2.6458z"/>
</svg>