<?xml version="1.0" encoding="UTF-8" standalone="no"?>
<svg
   id="svg5060"
   version="1.1"
   viewBox="0 0 474 474"
   sodipodi:docname="bicycle-straight.svg"
   inkscape:version="1.4.3 (0d15f75, 2025-12-25)"
   xmlns:inkscape="http://www.inkscape.org/namespaces/inkscape"
   xmlns:sodipodi="http://sodipodi.sourceforge.net/DTD/sodipodi-0.dtd"
   xmlns="http://www.w3.org/2000/svg"
   xmlns:svg="http://www.w3.org/2000/svg">
  <sodipodi:namedview
     id="namedview1"
     pagecolor="#ffffff"
     bordercolor="#000000"
     borderopacity="0.25"
     inkscape:showpageshadow="2"
     inkscape:pageopacity="0.0"
     inkscape:pagecheckerboard="0"
     inkscape:deskcolor="#d1d1d1"
     inkscape:zoom="1.7046414"
     inkscape:cx="237"
     inkscape:cy="237"
     inkscape:window-width="1920"
     inkscape:window-height="1010"
     inkscape:window-x="-6"
     inkscape:window-y="-6"
     inkscape:window-maximized="1"
     inkscape:current-layer="g5710" />
  <defs
     id="defs1">
    <style
       id="style1">
      .cls-1 {
        fill: #000;
      }

      .cls-1, .cls-2, .cls-3 {
        stroke-width: 0px;
      }

      .cls-2 {
        fill-rule: evenodd;
      }

      .cls-2, .cls-3 {
        fill: #ff2816;
      }

      .cls-4 {
        fill: none;
        stroke: #ff2816;
        stroke-miterlimit: 1.6;
        stroke-width: 16px;
      }
    </style>
  </defs>
  <path
     id="path4277"
     class="cls-1"
     d="M472.1,207.1c16.5,129.8-75.3,248.5-205.2,265S18.4,396.7,1.9,266.9C-14.6,137.1,77.3,18.4,207.1,1.9c129.6-16.5,248.2,75.1,264.9,204.7" />
  <g
     id="g5710">
    <path
       id="circle3726"
       style="baseline-shift:baseline;display:inline;overflow:visible;vector-effect:none;fill:#ff2816;stroke-miterlimit:1.6;enable-background:accumulate;stop-color:#000000;stop-opacity:1;opacity:1"
       d="M 207.80078 68.199219 L 207.79688 68.400391 C 207.79779 68.400382 207.79987 68.400399 207.80078 68.400391 L 207.80078 68.199219 z M 207.79688 68.400391 C 154.83495 68.899828 163.78861 62.909334 135.35742 154.31836 C 131.05797 153.51798 126.62582 153.09961 122.09961 153.09961 C 82.208949 153.09961 49.699219 185.60934 49.699219 225.5 C 49.699219 265.39066 82.208949 297.90039 122.09961 297.90039 C 161.99027 297.90039 194.5 265.39066 194.5 225.5 C 194.5 195.67338 176.32452 169.97364 150.47852 158.9043 C 152.09208 153.83241 153.82806 148.40532 155.69922 142.59961 C 262.29922 255.09961 222.29922 236.79961 279.69922 239.09961 C 280.17623 239.09518 280.65156 239.09189 281.12305 239.08789 C 287.9753 271.86759 317.13021 296.59961 351.90039 296.59961 C 391.73582 296.59961 424.19922 264.13621 424.19922 224.30078 C 424.19922 184.46535 391.73582 152 351.90039 152 C 343.80738 152 336.01833 153.33905 328.74414 155.80859 C 323.03132 143.13722 316.33945 128.26895 308.5 110.80078 L 313.5 97.199219 L 330.5 96.900391 L 329.90039 82.599609 L 266.40039 82.599609 C 260.80039 90.199609 268.69961 90.2 297.09961 96.5 L 292.09961 110.40039 L 165.40039 110.69922 C 173.90039 80.899219 169.1 82.800781 207.5 82.800781 L 207.79688 68.400391 z M 285.69922 125.69922 L 249.90039 222 L 161.69922 125.90039 L 285.69922 125.69922 z M 300.69922 131.69922 L 314.56641 162.41992 C 293.67579 175.08039 279.65811 198.01484 279.59961 224.13672 L 265.5 224.09961 L 300.69922 131.69922 z M 351.90039 168 C 383.08878 168 408.19922 193.11239 408.19922 224.30078 C 408.19922 255.48917 383.08878 280.59961 351.90039 280.59961 C 325.81041 280.59961 303.97191 263.02762 297.5293 239.02539 C 356.1029 239.08693 361.27642 242.15272 362.09961 232 C 362.02105 229.01489 360.89382 227.01737 335.35156 170.45312 C 340.58022 168.85791 346.13655 168 351.90039 168 z M 122.09961 169.09961 C 124.9482 169.09961 127.74557 169.30911 130.47852 169.71289 C 112.46154 226.58314 114.59246 220.18486 114.5 224.90039 C 114.4 228.90039 117.69922 232.00078 121.69922 232.30078 C 128.97663 231.52106 127.24698 232.76637 145.64258 174.19922 C 165.06681 183.089 178.5 202.66986 178.5 225.5 C 178.5 256.74362 153.34323 281.90039 122.09961 281.90039 C 90.855991 281.90039 65.699219 256.74362 65.699219 225.5 C 65.699219 194.25638 90.855991 169.09961 122.09961 169.09961 z M 321.17578 177.0625 L 321.17773 177.0625 L 342.5 224.30078 L 295.59961 224.17773 C 295.64137 204.393 305.78922 187.06495 321.17578 177.0625 z " />
  </g>
  <path
     id="rect3762"
     class="cls-3"
     d="M177.5,378.4v-22.6l59.4-50.1,59.5,50.4v22.4l-59.4-50.1-59.5,50.1h0ZM227.7,359.3h18.4v71.1h-18.4v-71.1h0Z" />
</svg>
