<?xml version="1.0" encoding="utf-8"?>
<!DOCTYPE svg PUBLIC "-//W3C//DTD SVG 1.1//EN" "http://www.w3.org/Graphics/SVG/1.1/DTD/svg11.dtd">
<svg version="1.1" id="RiLSA_820" xmlns="http://www.w3.org/2000/svg" xmlns:xlink="http://www.w3.org/1999/xlink" x="0px" y="0px"
	 width="600px" height="600px" viewBox="0 0 600 600" enable-background="new 0 0 600 600" xml:space="preserve">
<circle cx="300" cy="300" r="300"/>
<path fill="#FF2816" d="M258,354h36v198.001c0,4.772-1.896,9.353-5.272,12.728c-3.376,3.376-7.954,5.272-12.728,5.272
	c-4.774,0-9.354-1.896-12.729-5.272c-3.376-3.375-5.271-7.954-5.271-12.728V354 M305.999,354H342v198.001
	c0,4.772-1.896,9.353-5.272,12.728c-3.375,3.376-7.954,5.272-12.728,5.272c-4.774,0-9.354-1.896-12.729-5.272
	c-3.375-3.375-5.271-7.954-5.271-12.728V354 M258,342.001v-150c0-3.313-2.688-6.001-6-6.001c-3.313,0-6,2.688-6,6.001V339
	c-8.864-3.585-16.455-9.736-21.799-17.664c-5.347-7.928-8.201-17.271-8.201-26.832V192.001c0-15.914,6.321-31.175,17.573-42.427
	C244.826,138.321,260.087,132,276,132h48c15.912,0,31.174,6.321,42.426,17.574c11.252,11.252,17.573,26.513,17.573,42.427v102.503
	c0,9.561-2.855,18.904-8.2,26.832c-5.345,7.929-12.937,14.079-21.8,17.664V192.001c0-3.313-2.687-6.001-6-6.001
	c-3.314,0-6,2.688-6,6.001v150H258 M342,72c0-11.139-4.426-21.822-12.302-29.697c-7.876-7.878-18.56-12.302-29.698-12.302
	s-21.822,4.424-29.698,12.302c-7.876,7.875-12.301,18.56-12.301,29.697s4.425,21.821,12.301,29.699
	C278.178,109.575,288.861,114,300,114s21.822-4.425,29.698-12.301C337.574,93.822,342,83.14,342,72"/>
</svg>
