<?xml version="1.0" encoding="utf-8"?>
<!DOCTYPE svg PUBLIC "-//W3C//DTD SVG 1.1//EN" "http://www.w3.org/Graphics/SVG/1.1/DTD/svg11.dtd">
<svg version="1.1" id="RiLSA_824" xmlns="http://www.w3.org/2000/svg" xmlns:xlink="http://www.w3.org/1999/xlink" x="0px" y="0px"
	 width="600px" height="600px" viewBox="0 0 600 600" enable-background="new 0 0 600 600" xml:space="preserve">
<circle cx="300" cy="300" r="300"/>
<path fill="#FF2816" d="M279,192h18v99c0,4.971-4.028,9-9,9c-4.97,0-9-4.029-9-9V192 M303,192h18v99c0,4.971-4.029,9-9,9
	s-9-4.029-9-9V192 M279,186v-75c0-1.657-1.343-3-3-3s-3,1.343-3,3v73.5c-4.432-1.792-8.227-4.868-10.899-8.832
	c-2.673-3.964-4.1-8.636-4.1-13.416V111c0-7.956,3.161-15.587,8.786-21.213C272.413,84.161,280.044,81,288,81h24
	c7.956,0,15.587,3.161,21.214,8.787c5.626,5.626,8.787,13.257,8.787,21.213v51.252c0,4.78-1.429,9.452-4.102,13.416
	c-2.672,3.964-6.468,7.04-10.899,8.832V111c0-1.657-1.343-3-2.999-3c-1.657,0-3.001,1.343-3.001,3v75H279 M321,51
	c0-5.569-2.213-10.911-6.15-14.849C310.911,32.213,305.57,30,300,30c-5.57,0-10.911,2.212-14.85,6.15
	C281.213,40.089,279,45.431,279,51c0,5.57,2.212,10.911,6.15,14.85C289.089,69.788,294.43,72,300,72
	c5.569,0,10.911-2.212,14.85-6.15C318.787,61.911,321,56.57,321,51"/>
<path fill="#FF2816" d="M455.73,424.771C443.072,412.112,425.903,405,408.001,405c-7.105,0-14.166,1.123-20.921,3.324L367.5,364.5
	l5.063-13.5h15.188v-13.499h-57.376c-1.864,0-3.375,1.511-3.375,3.374c0,1.562,1.07,2.919,2.589,3.282L358.145,351l-5.063,13.5
	H232.501l5.415-17.492c0.853-2.754,2.565-5.162,4.885-6.874c2.32-1.711,5.128-2.633,8.011-2.633H273v-13.5h-22.188
	c-5.766,0-11.381,1.846-16.022,5.267c-4.642,3.422-8.065,8.239-9.77,13.748l-19.606,63.33c-4.415-0.895-8.909-1.346-13.413-1.346
	c-17.903,0-35.072,7.112-47.73,19.771c-12.659,12.659-19.77,29.827-19.77,47.729s7.111,35.072,19.77,47.73S174.098,540,192.001,540
	c17.902,0,35.071-7.111,47.729-19.77s19.77-29.828,19.77-47.73c0-13.262-3.907-26.229-11.232-37.285
	c-7.325-11.055-17.746-19.708-29.958-24.876l5.365-17.329l79.798,88.529c2.561,2.84,6.204,4.461,10.027,4.461h28.364
	c3.111,15.244,11.394,28.945,23.445,38.786C377.361,534.625,392.442,540,408.001,540c17.901,0,35.07-7.111,47.729-19.77
	c12.659-12.658,19.771-29.828,19.771-47.73S468.389,437.43,455.73,424.771z M237.386,443.241c5.624,8.723,8.615,18.88,8.615,29.259
	c0,14.322-5.69,28.057-15.816,38.185c-10.127,10.127-23.862,15.815-38.184,15.815c-14.323,0-28.057-5.688-38.184-15.815
	C143.69,500.557,138,486.822,138,472.5c0-14.32,5.69-28.057,15.817-38.184c10.126-10.128,23.861-15.816,38.184-15.816
	c3.149,0,6.293,0.275,9.396,0.824l-15.844,51.179c-0.2,0.647-0.302,1.321-0.302,1.997c0,3.729,3.022,6.751,6.75,6.751
	c2.959,0,5.573-1.929,6.448-4.754l15.844-51.181C223.745,427.601,231.762,434.518,237.386,443.241z M312.852,471.78L228.321,378
	H348.02L312.852,471.78z M340.5,472.5H327l33.753-90.007l13.975,31.277c-10.391,5.888-19.033,14.424-25.046,24.742
	C343.669,448.83,340.5,460.559,340.5,472.5z M380.266,426.167l20.701,46.333H354C354,453.512,363.974,435.919,380.266,426.167z
	 M446.185,510.685c-10.128,10.127-23.862,15.815-38.184,15.815c-11.973,0-23.604-3.978-33.069-11.309
	c-9.464-7.332-16.225-17.6-19.217-29.191h0.001h55.659c3.728,0,6.75-3.022,6.75-6.749c0-0.948-0.199-1.887-0.587-2.753
	l-24.913-55.764c4.99-1.481,10.169-2.234,15.376-2.234c14.321,0,28.056,5.688,38.184,15.816C456.311,444.443,462,458.18,462,472.5
	C462,486.822,456.311,500.557,446.185,510.685z"/>
</svg>
